<?xml version="1.0" encoding="utf-8"?>
<!-- Generator: Adobe Illustrator 22.0.1, SVG Export Plug-In . SVG Version: 6.00 Build 0)  -->
<svg version="1.1" xmlns="http://www.w3.org/2000/svg" xmlns:xlink="http://www.w3.org/1999/xlink" x="0px" y="0px"
	 viewBox="0 0 500 500" style="enable-background:new 0 0 500 500;" xml:space="preserve">
<style type="text/css">
	.st0{fill:#FFFFFF;}
	.st1{fill:#D1E6EC;}
	.st2{fill:#FD4059;}
	.st3{fill:#0172CE;}
	.st4{fill:#004FC3;}
	.st5{fill:#023386;}
	.st6{fill:#233B78;}
	.st7{fill:#29245D;}
	.st8{opacity:0.3;fill:#FFFFFF;}
	.st9{fill:#0096E2;}
	.st10{fill:#FDA893;}
	.st11{fill:#FF877C;}
	.st12{fill:#E51C4A;}
	.st13{fill:#F25B56;}
	.st14{fill:#CB2242;}
</style>
<g id="BACKGROUND">
	<rect class="st0" width="500" height="500"/>
</g>
<g id="OBJECTS">
	<g>
		<g>
			<path class="st1" d="M226.5,151c-15.7-56.8-86.2-75.1-126.6-32.6c-0.6,0.6-1.2,1.2-1.7,1.9c-58,63-30.6,218.3,90.4,257.6
				c121,39.4,246.8-32.5,253.8-96.7c7.1-64.2-48.7-84.4-135.3-66.5C258.1,224.8,236.3,186.3,226.5,151z"/>
			<path class="st1" d="M365.1,371.5c-14.3,8.1-13.5,23.1,1.8,28.3c5,1.7,11.5,2.3,19.9,0.7c31.9-6.1,42.9-25.3,24.5-38.1
				C399.8,354.5,379.2,363.5,365.1,371.5z"/>
			<path class="st1" d="M356.6,165.1c-16.3,1.9-21.4,16.1-9.3,26.8c4,3.5,9.8,6.6,18.1,8.3c31.8,6.7,47.4-12.3,37.3-25.6
				C394.2,163.4,372.7,163.2,356.6,165.1z"/>
			<path class="st1" d="M413.6,344.3c-4.6,6.5-1,14.2,6.9,14.5c2.6,0.1,5.6-0.6,9-2.8c12.8-8.3,13.6-20,2.7-23.7
				C425.3,329.9,418.1,337.9,413.6,344.3z"/>
			<path class="st1" d="M66.2,306.6c4.7,6.4,13.1,5.5,15.9-1.8c0.9-2.4,1.2-5.5,0.2-9.4c-3.7-14.8-14.6-19.3-21.6-10.2
				C56.4,290.8,61.6,300.2,66.2,306.6z"/>
		</g>
	</g>
	<ellipse class="st1" cx="251.1" cy="419.8" rx="182.8" ry="8.9"/>
	<g>
		<g>
			<g>
				<path class="st2" d="M397.9,150.1c-3.5,0-6.3-2.8-6.3-6.3s2.8-6.3,6.3-6.3c3.5,0,6.3,2.8,6.3,6.3S401.4,150.1,397.9,150.1z
					 M397.9,139.4c-2.4,0-4.3,1.9-4.3,4.3c0,2.4,1.9,4.3,4.3,4.3c2.4,0,4.3-1.9,4.3-4.3C402.2,141.3,400.3,139.4,397.9,139.4z"/>
			</g>
			<g>
				<path class="st2" d="M417.8,179.8c-3.5,0-6.3-2.8-6.3-6.3s2.8-6.3,6.3-6.3c3.5,0,6.3,2.8,6.3,6.3S421.2,179.8,417.8,179.8z
					 M417.8,169.2c-2.4,0-4.3,1.9-4.3,4.3c0,2.4,1.9,4.3,4.3,4.3c2.4,0,4.3-1.9,4.3-4.3C422.1,171.1,420.1,169.2,417.8,169.2z"/>
			</g>
			<g>
				<g>
					<g>
						<path class="st3" d="M407.4,197c-0.5,0-1-0.4-1-1v-4.4c0-0.5,0.4-1,1-1c0.5,0,1,0.4,1,1v4.4C408.4,196.6,407.9,197,407.4,197z
							"/>
					</g>
					<g>
						<path class="st3" d="M407.4,204.7c-0.5,0-1-0.4-1-1v-4.4c0-0.5,0.4-1,1-1c0.5,0,1,0.4,1,1v4.4
							C408.4,204.3,407.9,204.7,407.4,204.7z"/>
					</g>
				</g>
				<g>
					<g>
						<path class="st3" d="M413.5,198.7h-3.9c-0.5,0-1-0.4-1-1c0-0.5,0.4-1,1-1h3.9c0.5,0,1,0.4,1,1
							C414.5,198.2,414.1,198.7,413.5,198.7z"/>
					</g>
					<g>
						<path class="st3" d="M405.2,198.7h-3.9c-0.5,0-1-0.4-1-1c0-0.5,0.4-1,1-1h3.9c0.5,0,1,0.4,1,1
							C406.2,198.2,405.7,198.7,405.2,198.7z"/>
					</g>
				</g>
			</g>
			<g>
				<g>
					<g>
						<g>
							<path class="st4" d="M391.6,169c-0.5,0-1-0.4-1-1v-4.4c0-0.5,0.4-1,1-1c0.5,0,1,0.4,1,1v4.4C392.5,168.6,392.1,169,391.6,169
								z"/>
						</g>
						<g>
							<path class="st4" d="M391.6,176.7c-0.5,0-1-0.4-1-1v-4.4c0-0.5,0.4-1,1-1c0.5,0,1,0.4,1,1v4.4
								C392.5,176.3,392.1,176.7,391.6,176.7z"/>
						</g>
					</g>
					<g>
						<g>
							<g>
								<path class="st4" d="M397.7,170.7h-3.9c-0.5,0-1-0.4-1-1c0-0.5,0.4-1,1-1h3.9c0.5,0,1,0.4,1,1
									C398.7,170.2,398.2,170.7,397.7,170.7z"/>
							</g>
						</g>
						<g>
							<path class="st4" d="M389.3,170.7h-3.9c-0.5,0-1-0.4-1-1c0-0.5,0.4-1,1-1h3.9c0.5,0,1,0.4,1,1
								C390.3,170.2,389.9,170.7,389.3,170.7z"/>
						</g>
					</g>
				</g>
			</g>
		</g>
		<g>
			<g>
				<g>
					<path class="st2" d="M96.5,150.2c0,3.5-2.8,6.3-6.3,6.3c-3.5,0-6.3-2.8-6.3-6.3c0-3.5,2.8-6.3,6.3-6.3
						C93.6,143.8,96.5,146.7,96.5,150.2z M85.8,150.2c0,2.4,1.9,4.3,4.3,4.3c2.4,0,4.3-1.9,4.3-4.3c0-2.4-1.9-4.3-4.3-4.3
						C87.8,145.8,85.8,147.8,85.8,150.2z"/>
				</g>
			</g>
			<g>
				<path class="st3" d="M97,121.7c0,3.5-2.8,6.3-6.3,6.3c-3.5,0-6.3-2.8-6.3-6.3c0-3.5,2.8-6.3,6.3-6.3
					C94.2,115.4,97,118.2,97,121.7z M86.3,121.7c0,2.4,1.9,4.3,4.3,4.3s4.3-1.9,4.3-4.3c0-2.4-1.9-4.3-4.3-4.3
					S86.3,119.3,86.3,121.7z"/>
			</g>
			<g>
				<g>
					<g>
						<path class="st2" d="M99.7,104.3c0,0.5-0.4,1-1,1h-4.4c-0.5,0-1-0.4-1-1c0-0.5,0.4-1,1-1h4.4
							C99.2,103.3,99.7,103.8,99.7,104.3z"/>
					</g>
					<g>
						<path class="st2" d="M107.3,104.3c0,0.5-0.4,1-1,1H102c-0.5,0-1-0.4-1-1c0-0.5,0.4-1,1-1h4.4
							C106.9,103.3,107.3,103.8,107.3,104.3z"/>
					</g>
				</g>
				<g>
					<g>
						<path class="st2" d="M101.3,98.2v3.9c0,0.5-0.4,1-1,1s-1-0.4-1-1v-3.9c0-0.5,0.4-1,1-1S101.3,97.6,101.3,98.2z"/>
					</g>
					<g>
						<path class="st2" d="M101.3,106.5v3.9c0,0.5-0.4,1-1,1s-1-0.4-1-1v-3.9c0-0.5,0.4-1,1-1S101.3,106,101.3,106.5z"/>
					</g>
				</g>
			</g>
			<g>
				<g>
					<g>
						<g>
							<path class="st4" d="M71.4,138.7c0,0.5-0.4,1-1,1H66c-0.5,0-1-0.4-1-1c0-0.5,0.4-1,1-1h4.4C71,137.7,71.4,138.1,71.4,138.7z"
								/>
						</g>
						<g>
							<path class="st4" d="M79.1,138.7c0,0.5-0.4,1-1,1h-4.4c-0.5,0-1-0.4-1-1c0-0.5,0.4-1,1-1h4.4
								C78.6,137.7,79.1,138.1,79.1,138.7z"/>
						</g>
					</g>
					<g>
						<g>
							<path class="st4" d="M73.1,132.6v3.9c0,0.5-0.4,1-1,1c-0.5,0-1-0.4-1-1v-3.9c0-0.5,0.4-1,1-1C72.6,131.6,73.1,132,73.1,132.6
								z"/>
						</g>
						<g>
							<path class="st4" d="M73.1,140.9v3.9c0,0.5-0.4,1-1,1c-0.5,0-1-0.4-1-1v-3.9c0-0.5,0.4-1,1-1
								C72.6,139.9,73.1,140.4,73.1,140.9z"/>
						</g>
					</g>
				</g>
			</g>
		</g>
		<g>
			<path class="st0" d="M99,200.4H81.5c-2.3,0-4.1-1.8-4.1-4.1v-17.5c0-2.3,1.8-4.1,4.1-4.1H99c2.3,0,4.1,1.8,4.1,4.1v17.5
				C103.1,198.6,101.2,200.4,99,200.4z"/>
			<path class="st2" d="M97.7,185.7c0,1.1-0.4,2.3-1.3,3.2l-6,6l-6-6c-0.9-0.9-1.3-2-1.3-3.2c0-1.1,0.4-2.3,1.3-3.2
				c1.6-1.6,4.1-1.3,6,1.4c1.9-2.7,4.3-3,6-1.4C97.3,183.4,97.7,184.6,97.7,185.7z"/>
		</g>
	</g>
	<g>
		<g>
			<path class="st4" d="M315.6,302.2l2.5,0.8l1.3,0.4l3.8,1.2c0,0,56.5-45.7,42-72.9c-4.5-8.4-17.9-7.9-25.5,20.1
				C332.8,277.9,315.6,302.2,315.6,302.2z"/>
			<g>
				<path class="st5" d="M318.1,303l1.3,0.4c11.3-11.9,20.1-26.1,25.6-36.2c6.6-12,10.1-21.2,10.1-21.3c0.1-0.3,0-0.7-0.4-0.8
					c-0.3-0.1-0.7,0-0.8,0.4c0,0.1-3.5,9.2-10.1,21.2C338.4,276.9,329.6,291.1,318.1,303z"/>
			</g>
		</g>
		<g>
			<path class="st4" d="M316.2,140l2.5,0.3l1.3,0.2l3.7,0.5c0,0,43.7-52.2,25.5-74.7c-5.6-6.9-17.9-4-19.8,23.1
				C327.7,114.6,316.2,140,316.2,140z"/>
			<g>
				<path class="st5" d="M318.7,140.3l1.3,0.2c8.3-13,13.8-27.6,17-37.9c3.9-12.3,5.5-21.4,5.5-21.5c0.1-0.3-0.2-0.6-0.5-0.7
					c-0.3-0.1-0.6,0.2-0.7,0.5c0,0.1-1.6,9.1-5.4,21.3C332.7,112.6,327.1,127.3,318.7,140.3z"/>
			</g>
		</g>
		<g>
			<path class="st3" d="M308.6,150l3,2l1.6,1.1l4.5,3c0,0,90.1-40,80.8-80.8c-2.9-12.6-20.7-16.6-40.5,17.4
				C339.7,124.2,308.6,150,308.6,150z"/>
			<g>
				<path class="st4" d="M311.6,151.9l1.6,1.1c19.1-11.7,35.5-27.1,46.4-38.4c12.8-13.5,20.7-24.3,20.8-24.4
					c0.3-0.4,0.2-0.9-0.2-1.2c-0.4-0.3-0.9-0.2-1.2,0.2c-0.1,0.1-7.9,10.9-20.7,24.3C347.4,124.8,330.8,140.3,311.6,151.9z"/>
			</g>
		</g>
		<g>
			<path class="st3" d="M302.5,311l2.8,2.7l1.5,1.4l4.2,4c0,0,102.2-24.5,100.3-69.1c-0.6-13.7-18.5-21.4-45.8,10.5
				C340,290,302.5,311,302.5,311z"/>
			<g>
				<path class="st4" d="M305.3,313.6l1.5,1.4c22.3-8.5,42.5-21.5,56-31.4c16.1-11.7,26.4-21.5,26.5-21.6c0.4-0.4,0.4-0.9,0-1.3
					c-0.4-0.4-0.9-0.4-1.3,0c-0.1,0.1-10.4,9.8-26.4,21.4C348.1,292.1,327.7,305.2,305.3,313.6z"/>
			</g>
		</g>
		<g>
			<path class="st4" d="M115.5,130.6c3.9,11,15.1,10.1,15.3,19.3c0.2,9.1,6.3,15.7,14,13.7c7.8-2.1,13.4-4,17.4,4.9
				c4,8.9,15.7,12.8,19.9,5.5c1-1.8,2.2-3.8,3.3-5.8c0.3-0.5,0.6-1.1,0.9-1.6c0.1-0.1,0.1-0.2,0.2-0.4c4.4-7.8,2.3-17.8-5-23.1
				c-3-2.1-6.5-3.2-10.3-1.9c-12,4.2-8.2-8.3-15.7-13.1c-8.6-5.5-15.5,1.5-21.4-3.2C125.8,118.3,111.6,119.6,115.5,130.6z"/>
			<g>
				<path class="st5" d="M130.2,134.8l55.1,33.4c0.3-0.5,0.6-1.1,0.9-1.6l-55.1-33.4c-0.4-0.3-1-0.1-1.2,0.3
					C129.7,133.9,129.8,134.5,130.2,134.8z"/>
			</g>
		</g>
		<g>
			<path class="st3" d="M123.4,68.7c-1.6,14.4,11.4,19.4,6.8,29.7c-4.6,10.3-1.4,20.9,8.4,22.8c9.8,1.9,17.1,2.7,16.9,14.7
				c-0.2,12.1,10.7,22.7,19.3,16.7c2.1-1.5,4.5-3.1,6.7-4.7c0.6-0.4,1.2-0.9,1.8-1.3c0.1-0.1,0.3-0.2,0.4-0.3
				c9.1-6.4,12.1-18.7,6.7-28.4c-2.2-3.9-5.5-7-10.5-7.6c-15.6-1.7-4.7-13.6-10.6-23c-6.7-10.8-18.1-6.5-22.2-15
				C141.5,60.4,125,54.3,123.4,68.7z"/>
			<g>
				<path class="st4" d="M137.7,81.2l43.8,66.7c0.6-0.4,1.2-0.9,1.8-1.3l-43.7-66.6c-0.3-0.5-1-0.7-1.6-0.3
					C137.5,79.9,137.3,80.6,137.7,81.2z"/>
			</g>
		</g>
		<g>
			<path class="st4" d="M116.8,390.9c10.2,5.7,18-2.3,24.2,4.4c6.2,6.7,15.1,7.7,19.6,1c4.5-6.7,7.4-11.9,16.3-7.9
				c8.9,4,20.3-0.7,18.5-9c-0.4-2.1-0.9-4.3-1.4-6.5c-0.1-0.6-0.3-1.2-0.4-1.8c0-0.1-0.1-0.3-0.1-0.4c-1.9-8.8-10-14.9-19-14
				c-3.6,0.4-7,1.9-9,5.4c-6.2,11-11.6-0.8-20.4,0.5c-10.1,1.5-10.6,11.4-18.2,11.7C116.3,374.8,106.5,385.2,116.8,390.9z"/>
			<g>
				<path class="st5" d="M130.6,384.3l63.4-11.4c-0.1-0.6-0.3-1.2-0.4-1.8l-63.4,11.3c-0.5,0.1-0.8,0.6-0.7,1.1
					C129.6,384,130.1,384.4,130.6,384.3z"/>
			</g>
		</g>
		<g>
			<path class="st3" d="M86.5,338c8.4,11.8,21.4,7,24.7,17.8c3.3,10.8,12.8,16.6,21.3,11.6c8.6-5.1,14.6-9.3,22.4-0.1
				c7.8,9.2,23,10,25.5-0.2c0.6-2.5,1.3-5.3,1.9-8c0.2-0.7,0.4-1.5,0.5-2.2c0-0.2,0.1-0.3,0.1-0.5c2.6-10.8-3.2-22-13.7-25.8
				c-4.3-1.5-8.8-1.6-12.9,1.2c-12.9,9-12.6-7.1-23.1-10.3c-12.1-3.7-17.9,7.1-26.6,3.4C94.6,319.8,78.2,326.1,86.5,338z"/>
			<g>
				<path class="st4" d="M105.5,337.9l76.9,21.2c0.2-0.7,0.4-1.5,0.5-2.2l-76.9-21.1c-0.6-0.2-1.2,0.2-1.4,0.8
					C104.5,337.1,104.9,337.7,105.5,337.9z"/>
			</g>
		</g>
		<g>
			<g>
				<path class="st4" d="M288.9,142.6c2.4-21.3,5.7-39.4,9.9-53.8c5.5-18.8,12.5-31.3,20.9-37.1c0.6-0.4,1.3-0.3,1.7,0.3
					c0.4,0.6,0.3,1.3-0.3,1.7c-14.6,10.3-25.1,43-30.3,94.6L288.9,142.6z"/>
			</g>
			<path class="st3" d="M305,72.5c0,0-10.1-1.8-6.2-19.4C298.8,53.1,313.5,60.3,305,72.5z"/>
			<path class="st3" d="M302.5,81.5c0,0,1.3-10.2,19.1-7.3C321.6,74.3,315.3,89.3,302.5,81.5z"/>
			<path class="st3" d="M314.7,58c0,0-2.2-10,15.6-13.2C330.3,44.8,329.3,61.1,314.7,58z"/>
			<path class="st3" d="M297,99.4c0,0-10.1,1.7-12.4-16.2C284.6,83.2,300.8,85,297,99.4z"/>
			<path class="st3" d="M295.8,109c0,0-0.5-10.2,17.5-10.5C313.4,98.5,309.7,114.4,295.8,109z"/>
			<path class="st3" d="M293,121.9c0,0-10.1,1.9-12.7-16C280.3,105.9,296.5,107.4,293,121.9z"/>
		</g>
	</g>
	<g>
		<g>
			<path class="st6" d="M328.4,140.6V401c0,8.2-6.6,14.8-14.8,14.8H183.9c-4.1,0-7.8-1.7-10.5-4.4c-2.7-2.7-4.3-6.4-4.3-10.4V140.6
				c0-8.2,6.6-14.8,14.8-14.8h129.7c2.4,0,4.7,0.6,6.7,1.6C325.1,129.8,328.4,134.8,328.4,140.6z"/>
			<path class="st7" d="M328.4,140.6V401c0,8.2-6.6,14.8-14.8,14.8H183.9c-4.1,0-7.8-1.7-10.5-4.4l146.9-284
				C325.1,129.8,328.4,134.8,328.4,140.6z"/>
		</g>
		<g>
			<path class="st7" d="M169.2,199.3H168c-2.3,0-4.2-1.9-4.2-4.2v-25.9c0-2.3,1.9-4.2,4.2-4.2h1.2V199.3z"/>
			<path class="st7" d="M328.4,198h1c1.9,0,3.5-1.5,3.5-3.5v-21.1c0-1.9-1.5-3.5-3.5-3.5h-1V198z"/>
			<path class="st7" d="M169.2,238.4H168c-2.3,0-4.2-1.9-4.2-4.2v-25.9c0-2.3,1.9-4.2,4.2-4.2h1.2V238.4z"/>
		</g>
		<g>
			<path class="st0" d="M321,139.9v261.7c0,3.7-3,6.8-6.8,6.8h-131c-2.8,0-5.2-1.7-6.2-4.1c-0.4-0.8-0.6-1.7-0.6-2.7V139.9
				c0-3.7,3-6.8,6.8-6.8h131c1,0,1.9,0.2,2.8,0.6C319.4,134.8,321,137.2,321,139.9z"/>
		</g>
		<g>
			<path class="st6" d="M292.6,132.9l-6,9.2c-1.7,2.6-4.5,4.1-7.6,4.1h-58.2c-3.1,0-5.9-1.5-7.6-4.1l-6-9.2c0-0.9,0.8-1.7,1.7-1.7
				h82C291.8,131.2,292.6,132,292.6,132.9z"/>
			<path class="st7" d="M270.6,139.6h-50.7c-0.8,0-1.4-0.6-1.4-1.4v-0.8c0-0.8,0.6-1.4,1.4-1.4h50.7c0.8,0,1.4,0.6,1.4,1.4v0.8
				C272,138.9,271.4,139.6,270.6,139.6z"/>
			<circle class="st6" cx="279.6" cy="137.6" r="2.2"/>
		</g>
		<g>
			<g>
				<g>
					<path class="st1" d="M228.9,260.3c0,4.9-1.7,9.3-4.6,12.8c-0.7,0.8-1.4,1.6-2.2,2.3c-3.6,3.1-8.2,5-13.3,5s-9.8-1.9-13.3-5
						c-0.8-0.7-1.5-1.5-2.2-2.3c-2.9-3.5-4.6-8-4.6-12.8c0-11.1,9-20.2,20.2-20.2S228.9,249.1,228.9,260.3z"/>
				</g>
				<circle class="st0" cx="208.7" cy="255.3" r="7.7"/>
				<path class="st0" d="M222.1,275.4c-3.6,3.1-8.2,5-13.3,5s-9.8-1.9-13.3-5c0.8-3.3,2.8-5.5,5-7c5-3.5,11.8-3.5,16.8,0
					C219.3,269.9,221.3,272.1,222.1,275.4z"/>
			</g>
			<g>
				<g>
					<g>
						<path class="st1" d="M237.3,256.1c0-0.1,0-0.1,0-0.1c0.4-1.2,0.8-2.5,1.2-3.7c0-0.1,0-0.1-0.1-0.2c-1.2-0.9-2.4-1.8-3.6-2.7
							c0,0-0.1,0-0.1-0.1c0.1,0,0.2,0,0.3,0c1.4,0,2.9,0,4.3,0c0.1,0,0.1,0,0.1-0.1c0.4-1.3,0.9-2.7,1.3-4c0,0,0-0.1,0-0.1
							c0,0,0,0.1,0,0.1c0.5,1.4,1,2.7,1.5,4.1c0,0.1,0.1,0.1,0.2,0.1c1.3,0,2.7,0,4,0c0.1,0,0.1,0,0.2,0c0,0-0.1,0-0.1,0.1
							c-1.2,0.8-2.3,1.6-3.5,2.4c-0.1,0.1-0.1,0.1-0.1,0.2c0.5,1.4,0.9,2.7,1.4,4.1c0,0,0,0.1,0,0.1c-0.1,0-0.1-0.1-0.2-0.1
							c-1.1-0.8-2.3-1.6-3.4-2.4c-0.1,0-0.1,0-0.2,0c-1.1,0.8-2.3,1.6-3.4,2.4C237.4,256,237.3,256,237.3,256.1z"/>
					</g>
				</g>
				<g>
					<g>
						<path class="st1" d="M252.6,256.1c0-0.1,0-0.1,0-0.1c0.4-1.2,0.8-2.5,1.2-3.7c0-0.1,0-0.1-0.1-0.2c-1.2-0.9-2.4-1.8-3.6-2.7
							c0,0-0.1,0-0.1-0.1c0.1,0,0.2,0,0.3,0c1.4,0,2.9,0,4.3,0c0.1,0,0.1,0,0.1-0.1c0.4-1.3,0.9-2.7,1.3-4c0,0,0-0.1,0-0.1
							c0,0,0,0.1,0,0.1c0.5,1.4,1,2.7,1.5,4.1c0,0.1,0.1,0.1,0.2,0.1c1.3,0,2.7,0,4,0c0.1,0,0.1,0,0.2,0c0,0-0.1,0-0.1,0.1
							c-1.2,0.8-2.3,1.6-3.5,2.4c-0.1,0.1-0.1,0.1-0.1,0.2c0.5,1.4,0.9,2.7,1.4,4.1c0,0,0,0.1,0,0.1c-0.1,0-0.1-0.1-0.2-0.1
							c-1.1-0.8-2.3-1.6-3.4-2.4c-0.1,0-0.1,0-0.2,0c-1.1,0.8-2.3,1.6-3.4,2.4C252.7,256,252.6,256,252.6,256.1z"/>
					</g>
				</g>
				<g>
					<g>
						<path class="st1" d="M267.9,256.1c0-0.1,0-0.1,0-0.1c0.4-1.2,0.8-2.5,1.2-3.7c0-0.1,0-0.1-0.1-0.2c-1.2-0.9-2.4-1.8-3.6-2.7
							c0,0-0.1,0-0.1-0.1c0.1,0,0.2,0,0.3,0c1.4,0,2.9,0,4.3,0c0.1,0,0.1,0,0.1-0.1c0.4-1.3,0.9-2.7,1.3-4c0,0,0-0.1,0-0.1
							c0,0,0,0.1,0,0.1c0.5,1.4,1,2.7,1.5,4.1c0,0.1,0.1,0.1,0.2,0.1c1.3,0,2.7,0,4,0c0.1,0,0.1,0,0.2,0c0,0-0.1,0-0.1,0.1
							c-1.2,0.8-2.3,1.6-3.5,2.4c-0.1,0.1-0.1,0.1-0.1,0.2c0.5,1.4,0.9,2.7,1.4,4.1c0,0,0,0.1,0,0.1c-0.1,0-0.1-0.1-0.2-0.1
							c-1.1-0.8-2.3-1.6-3.4-2.4c-0.1,0-0.1,0-0.2,0c-1.1,0.8-2.3,1.6-3.4,2.4C268,256,268,256,267.9,256.1z"/>
					</g>
				</g>
				<g>
					<g>
						<path class="st1" d="M283.2,256.1c0-0.1,0-0.1,0-0.1c0.4-1.2,0.8-2.5,1.2-3.7c0-0.1,0-0.1-0.1-0.2c-1.2-0.9-2.4-1.8-3.6-2.7
							c0,0-0.1,0-0.1-0.1c0.1,0,0.2,0,0.3,0c1.4,0,2.9,0,4.3,0c0.1,0,0.1,0,0.1-0.1c0.4-1.3,0.9-2.7,1.3-4c0,0,0-0.1,0-0.1
							c0,0,0,0.1,0,0.1c0.5,1.4,1,2.7,1.5,4.1c0,0.1,0.1,0.1,0.2,0.1c1.3,0,2.7,0,4,0c0.1,0,0.1,0,0.2,0c0,0-0.1,0-0.1,0.1
							c-1.2,0.8-2.3,1.6-3.5,2.4c-0.1,0.1-0.1,0.1-0.1,0.2c0.5,1.4,0.9,2.7,1.4,4.1c0,0,0,0.1,0,0.1c-0.1,0-0.1-0.1-0.2-0.1
							c-1.1-0.8-2.3-1.6-3.4-2.4c-0.1,0-0.1,0-0.2,0c-1.1,0.8-2.3,1.6-3.4,2.4C283.3,256,283.3,256,283.2,256.1z"/>
					</g>
				</g>
				<g>
					<path class="st1" d="M298.5,256.1c0-0.1,0-0.1,0-0.1c0.4-1.2,0.8-2.5,1.2-3.7c0-0.1,0-0.1-0.1-0.2c-1.2-0.9-2.4-1.8-3.6-2.7
						c0,0-0.1,0-0.1-0.1c0.1,0,0.2,0,0.3,0c1.4,0,2.9,0,4.3,0c0.1,0,0.1,0,0.1-0.1c0.4-1.3,0.9-2.7,1.3-4c0,0,0-0.1,0-0.1
						c0,0,0,0.1,0,0.1c0.5,1.4,1,2.7,1.5,4.1c0,0.1,0.1,0.1,0.2,0.1c1.3,0,2.7,0,4,0c0.1,0,0.1,0,0.2,0c0,0-0.1,0-0.1,0.1
						c-1.2,0.8-2.3,1.6-3.5,2.4c-0.1,0.1-0.1,0.1-0.1,0.2c0.5,1.4,0.9,2.7,1.4,4.1c0,0,0,0.1,0,0.1c-0.1,0-0.1-0.1-0.2-0.1
						c-1.1-0.8-2.3-1.6-3.4-2.4c-0.1,0-0.1,0-0.2,0c-1.1,0.8-2.3,1.6-3.4,2.4C298.6,256,298.6,256,298.5,256.1z"/>
				</g>
			</g>
			<g>
				<path class="st1" d="M306.3,261.1h-69.9c-0.9,0-1.6,0.7-1.6,1.6v0c0,0.9,0.7,1.6,1.6,1.6h69.9c0.9,0,1.6-0.7,1.6-1.6v0
					C307.9,261.8,307.2,261.1,306.3,261.1z"/>
				<path class="st1" d="M306.3,268h-69.9c-0.9,0-1.6,0.7-1.6,1.6l0,0c0,0.9,0.7,1.6,1.6,1.6h69.9c0.9,0,1.6-0.7,1.6-1.6l0,0
					C307.9,268.7,307.2,268,306.3,268z"/>
			</g>
		</g>
		<g>
			<g>
				<g>
					<path class="st1" d="M228.9,314.7c0,4.9-1.7,9.3-4.6,12.8c-0.7,0.8-1.4,1.6-2.2,2.3c-3.6,3.1-8.2,5-13.3,5s-9.8-1.9-13.3-5
						c-0.8-0.7-1.5-1.5-2.2-2.3c-2.9-3.5-4.6-8-4.6-12.8c0-11.1,9-20.2,20.2-20.2S228.9,303.6,228.9,314.7z"/>
				</g>
				
					<ellipse transform="matrix(0.9246 -0.3809 0.3809 0.9246 -102.2478 102.8502)" class="st0" cx="208.7" cy="309.8" rx="7.7" ry="7.7"/>
				<path class="st0" d="M222.1,329.8c-3.6,3.1-8.2,5-13.3,5s-9.8-1.9-13.3-5c0.8-3.3,2.8-5.5,5-7c5-3.5,11.8-3.5,16.8,0
					C219.3,324.3,221.3,326.5,222.1,329.8z"/>
			</g>
			<g>
				<g>
					<g>
						<path class="st1" d="M237.3,310.5c0-0.1,0-0.1,0-0.1c0.4-1.2,0.8-2.5,1.2-3.7c0-0.1,0-0.1-0.1-0.2c-1.2-0.9-2.4-1.8-3.6-2.7
							c0,0-0.1,0-0.1-0.1c0.1,0,0.2,0,0.3,0c1.4,0,2.9,0,4.3,0c0.1,0,0.1,0,0.1-0.1c0.4-1.3,0.9-2.7,1.3-4c0,0,0-0.1,0-0.1
							c0,0,0,0.1,0,0.1c0.5,1.4,1,2.7,1.5,4.1c0,0.1,0.1,0.1,0.2,0.1c1.3,0,2.7,0,4,0c0.1,0,0.1,0,0.2,0c0,0-0.1,0-0.1,0.1
							c-1.2,0.8-2.3,1.6-3.5,2.4c-0.1,0.1-0.1,0.1-0.1,0.2c0.5,1.4,0.9,2.7,1.4,4.1c0,0,0,0.1,0,0.1c-0.1,0-0.1-0.1-0.2-0.1
							c-1.1-0.8-2.3-1.6-3.4-2.4c-0.1,0-0.1,0-0.2,0c-1.1,0.8-2.3,1.6-3.4,2.4C237.4,310.4,237.3,310.4,237.3,310.5z"/>
					</g>
				</g>
				<g>
					<g>
						<path class="st1" d="M252.6,310.5c0-0.1,0-0.1,0-0.1c0.4-1.2,0.8-2.5,1.2-3.7c0-0.1,0-0.1-0.1-0.2c-1.2-0.9-2.4-1.8-3.6-2.7
							c0,0-0.1,0-0.1-0.1c0.1,0,0.2,0,0.3,0c1.4,0,2.9,0,4.3,0c0.1,0,0.1,0,0.1-0.1c0.4-1.3,0.9-2.7,1.3-4c0,0,0-0.1,0-0.1
							c0,0,0,0.1,0,0.1c0.5,1.4,1,2.7,1.5,4.1c0,0.1,0.1,0.1,0.2,0.1c1.3,0,2.7,0,4,0c0.1,0,0.1,0,0.2,0c0,0-0.1,0-0.1,0.1
							c-1.2,0.8-2.3,1.6-3.5,2.4c-0.1,0.1-0.1,0.1-0.1,0.2c0.5,1.4,0.9,2.7,1.4,4.1c0,0,0,0.1,0,0.1c-0.1,0-0.1-0.1-0.2-0.1
							c-1.1-0.8-2.3-1.6-3.4-2.4c-0.1,0-0.1,0-0.2,0c-1.1,0.8-2.3,1.6-3.4,2.4C252.7,310.4,252.6,310.4,252.6,310.5z"/>
					</g>
				</g>
				<g>
					<g>
						<path class="st1" d="M267.9,310.5c0-0.1,0-0.1,0-0.1c0.4-1.2,0.8-2.5,1.2-3.7c0-0.1,0-0.1-0.1-0.2c-1.2-0.9-2.4-1.8-3.6-2.7
							c0,0-0.1,0-0.1-0.1c0.1,0,0.2,0,0.3,0c1.4,0,2.9,0,4.3,0c0.1,0,0.1,0,0.1-0.1c0.4-1.3,0.9-2.7,1.3-4c0,0,0-0.1,0-0.1
							c0,0,0,0.1,0,0.1c0.5,1.4,1,2.7,1.5,4.1c0,0.1,0.1,0.1,0.2,0.1c1.3,0,2.7,0,4,0c0.1,0,0.1,0,0.2,0c0,0-0.1,0-0.1,0.1
							c-1.2,0.8-2.3,1.6-3.5,2.4c-0.1,0.1-0.1,0.1-0.1,0.2c0.5,1.4,0.9,2.7,1.4,4.1c0,0,0,0.1,0,0.1c-0.1,0-0.1-0.1-0.2-0.1
							c-1.1-0.8-2.3-1.6-3.4-2.4c-0.1,0-0.1,0-0.2,0c-1.1,0.8-2.3,1.6-3.4,2.4C268,310.4,268,310.4,267.9,310.5z"/>
					</g>
				</g>
			</g>
			<g>
				<path class="st1" d="M306.3,315.5h-69.9c-0.9,0-1.6,0.7-1.6,1.6v0c0,0.9,0.7,1.6,1.6,1.6h69.9c0.9,0,1.6-0.7,1.6-1.6v0
					C307.9,316.3,307.2,315.5,306.3,315.5z"/>
				<path class="st1" d="M306.3,322.4h-69.9c-0.9,0-1.6,0.7-1.6,1.6l0,0c0,0.9,0.7,1.6,1.6,1.6h69.9c0.9,0,1.6-0.7,1.6-1.6l0,0
					C307.9,323.2,307.2,322.4,306.3,322.4z"/>
			</g>
		</g>
		<g>
			<g>
				<g>
					<path class="st1" d="M228.9,370.5c0,4.9-1.7,9.3-4.6,12.8c-0.7,0.8-1.4,1.6-2.2,2.3c-3.6,3.1-8.2,5-13.3,5s-9.8-1.9-13.3-5
						c-0.8-0.7-1.5-1.5-2.2-2.3c-2.9-3.5-4.6-8-4.6-12.8c0-11.1,9-20.2,20.2-20.2S228.9,359.3,228.9,370.5z"/>
				</g>
				<path class="st0" d="M216.5,365.5c0,4.3-3.5,7.7-7.7,7.7s-7.7-3.5-7.7-7.7c0-4.3,3.5-7.7,7.7-7.7S216.5,361.3,216.5,365.5z"/>
				<path class="st0" d="M222.1,385.6c-3.6,3.1-8.2,5-13.3,5s-9.8-1.9-13.3-5c0.8-3.3,2.8-5.5,5-7c5-3.5,11.8-3.5,16.8,0
					C219.3,380.1,221.3,382.3,222.1,385.6z"/>
			</g>
			<g>
				<g>
					<g>
						<path class="st1" d="M237.3,366.3c0-0.1,0-0.1,0-0.1c0.4-1.2,0.8-2.5,1.2-3.7c0-0.1,0-0.1-0.1-0.2c-1.2-0.9-2.4-1.8-3.6-2.7
							c0,0-0.1,0-0.1-0.1c0.1,0,0.2,0,0.3,0c1.4,0,2.9,0,4.3,0c0.1,0,0.1,0,0.1-0.1c0.4-1.3,0.9-2.7,1.3-4c0,0,0-0.1,0-0.1
							c0,0,0,0.1,0,0.1c0.5,1.4,1,2.7,1.5,4.1c0,0.1,0.1,0.1,0.2,0.1c1.3,0,2.7,0,4,0c0.1,0,0.1,0,0.2,0c0,0-0.1,0-0.1,0.1
							c-1.2,0.8-2.3,1.6-3.5,2.4c-0.1,0.1-0.1,0.1-0.1,0.2c0.5,1.4,0.9,2.7,1.4,4.1c0,0,0,0.1,0,0.1c-0.1,0-0.1-0.1-0.2-0.1
							c-1.1-0.8-2.3-1.6-3.4-2.4c-0.1,0-0.1,0-0.2,0c-1.1,0.8-2.3,1.6-3.4,2.4C237.4,366.2,237.3,366.2,237.3,366.3z"/>
					</g>
				</g>
				<g>
					<g>
						<path class="st1" d="M252.6,366.3c0-0.1,0-0.1,0-0.1c0.4-1.2,0.8-2.5,1.2-3.7c0-0.1,0-0.1-0.1-0.2c-1.2-0.9-2.4-1.8-3.6-2.7
							c0,0-0.1,0-0.1-0.1c0.1,0,0.2,0,0.3,0c1.4,0,2.9,0,4.3,0c0.1,0,0.1,0,0.1-0.1c0.4-1.3,0.9-2.7,1.3-4c0,0,0-0.1,0-0.1
							c0,0,0,0.1,0,0.1c0.5,1.4,1,2.7,1.5,4.1c0,0.1,0.1,0.1,0.2,0.1c1.3,0,2.7,0,4,0c0.1,0,0.1,0,0.2,0c0,0-0.1,0-0.1,0.1
							c-1.2,0.8-2.3,1.6-3.5,2.4c-0.1,0.1-0.1,0.1-0.1,0.2c0.5,1.4,0.9,2.7,1.4,4.1c0,0,0,0.1,0,0.1c-0.1,0-0.1-0.1-0.2-0.1
							c-1.1-0.8-2.3-1.6-3.4-2.4c-0.1,0-0.1,0-0.2,0c-1.1,0.8-2.3,1.6-3.4,2.4C252.7,366.2,252.6,366.2,252.6,366.3z"/>
					</g>
				</g>
				<g>
					<g>
						<path class="st1" d="M267.9,366.3c0-0.1,0-0.1,0-0.1c0.4-1.2,0.8-2.5,1.2-3.7c0-0.1,0-0.1-0.1-0.2c-1.2-0.9-2.4-1.8-3.6-2.7
							c0,0-0.1,0-0.1-0.1c0.1,0,0.2,0,0.3,0c1.4,0,2.9,0,4.3,0c0.1,0,0.1,0,0.1-0.1c0.4-1.3,0.9-2.7,1.3-4c0,0,0-0.1,0-0.1
							c0,0,0,0.1,0,0.1c0.5,1.4,1,2.7,1.5,4.1c0,0.1,0.1,0.1,0.2,0.1c1.3,0,2.7,0,4,0c0.1,0,0.1,0,0.2,0c0,0-0.1,0-0.1,0.1
							c-1.2,0.8-2.3,1.6-3.5,2.4c-0.1,0.1-0.1,0.1-0.1,0.2c0.5,1.4,0.9,2.7,1.4,4.1c0,0,0,0.1,0,0.1c-0.1,0-0.1-0.1-0.2-0.1
							c-1.1-0.8-2.3-1.6-3.4-2.4c-0.1,0-0.1,0-0.2,0c-1.1,0.8-2.3,1.6-3.4,2.4C268,366.2,268,366.2,267.9,366.3z"/>
					</g>
				</g>
				<g>
					<g>
						<path class="st1" d="M283.2,366.3c0-0.1,0-0.1,0-0.1c0.4-1.2,0.8-2.5,1.2-3.7c0-0.1,0-0.1-0.1-0.2c-1.2-0.9-2.4-1.8-3.6-2.7
							c0,0-0.1,0-0.1-0.1c0.1,0,0.2,0,0.3,0c1.4,0,2.9,0,4.3,0c0.1,0,0.1,0,0.1-0.1c0.4-1.3,0.9-2.7,1.3-4c0,0,0-0.1,0-0.1
							c0,0,0,0.1,0,0.1c0.5,1.4,1,2.7,1.5,4.1c0,0.1,0.1,0.1,0.2,0.1c1.3,0,2.7,0,4,0c0.1,0,0.1,0,0.2,0c0,0-0.1,0-0.1,0.1
							c-1.2,0.8-2.3,1.6-3.5,2.4c-0.1,0.1-0.1,0.1-0.1,0.2c0.5,1.4,0.9,2.7,1.4,4.1c0,0,0,0.1,0,0.1c-0.1,0-0.1-0.1-0.2-0.1
							c-1.1-0.8-2.3-1.6-3.4-2.4c-0.1,0-0.1,0-0.2,0c-1.1,0.8-2.3,1.6-3.4,2.4C283.3,366.2,283.3,366.2,283.2,366.3z"/>
					</g>
				</g>
			</g>
			<g>
				<path class="st1" d="M306.3,371.3h-69.9c-0.9,0-1.6,0.7-1.6,1.6v0c0,0.9,0.7,1.6,1.6,1.6h69.9c0.9,0,1.6-0.7,1.6-1.6v0
					C307.9,372,307.2,371.3,306.3,371.3z"/>
				<path class="st1" d="M306.3,378.2h-69.9c-0.9,0-1.6,0.7-1.6,1.6l0,0c0,0.9,0.7,1.6,1.6,1.6h69.9c0.9,0,1.6-0.7,1.6-1.6l0,0
					C307.9,378.9,307.2,378.2,306.3,378.2z"/>
			</g>
		</g>
		<g>
			<path class="st1" d="M221.8,173.6h-30.3c-1.5,0-2.6,1.2-2.6,2.6v0c0,1.5,1.2,2.6,2.6,2.6h30.3c1.5,0,2.6-1.2,2.6-2.6v0
				C224.5,174.8,223.3,173.6,221.8,173.6z"/>
			<path class="st1" d="M221.8,184.9h-30.3c-1.5,0-2.7,1.1-2.7,2.6c0,1.5,1.2,2.7,2.6,2.7h30.3c1.5,0,2.6-1.2,2.6-2.6l0,0
				C224.5,186.1,223.3,184.9,221.8,184.9z"/>
			<path class="st1" d="M221.8,197.5h-30.3c-1.5,0-2.6,1.2-2.6,2.6v0c0,1.5,1.2,2.6,2.6,2.6h30.3c1.5,0,2.6-1.2,2.6-2.6v0
				C224.5,198.6,223.3,197.5,221.8,197.5z"/>
			<path class="st1" d="M221.8,208.8h-30.3c-1.5,0-2.7,1.1-2.7,2.6c0,1.5,1.2,2.7,2.6,2.7h30.3c1.5,0,2.6-1.2,2.6-2.6l0,0
				C224.5,210,223.3,208.8,221.8,208.8z"/>
		</g>
	</g>
	<g>
		<g>
			<path class="st2" d="M364.7,178.7H236.6c-1.4,0-2.5-1.1-2.5-2.5v-22.5c0-1.4,1.1-2.5,2.5-2.5h128.1c1.4,0,2.5,1.1,2.5,2.5v22.5
				C367.2,177.5,366.1,178.7,364.7,178.7z"/>
			<path class="st8" d="M358.1,172.2h-10.7c-1.4,0-2.5-1.1-2.5-2.5V159c0-1.4,1.1-2.5,2.5-2.5h10.7c1.4,0,2.5,1.1,2.5,2.5v10.7
				C360.5,171,359.4,172.2,358.1,172.2z"/>
			<g>
				<path class="st8" d="M332.1,159.5h-88.3c-0.6,0-1.2-0.5-1.2-1.2v-0.6c0-0.6,0.5-1.2,1.2-1.2h88.3c0.6,0,1.2,0.5,1.2,1.2v0.6
					C333.2,159,332.7,159.5,332.1,159.5z"/>
				<path class="st8" d="M332.1,165.8h-88.3c-0.6,0-1.2-0.5-1.2-1.2V164c0-0.6,0.5-1.2,1.2-1.2h88.3c0.6,0,1.2,0.5,1.2,1.2v0.6
					C333.2,165.3,332.7,165.8,332.1,165.8z"/>
				<path class="st8" d="M332.1,172.2h-88.3c-0.6,0-1.2-0.5-1.2-1.2v-0.6c0-0.6,0.5-1.2,1.2-1.2h88.3c0.6,0,1.2,0.5,1.2,1.2v0.6
					C333.2,171.6,332.7,172.2,332.1,172.2z"/>
			</g>
		</g>
		<g>
			<path class="st3" d="M363.3,217.7h-124c-2.5,0-4.6-2.1-4.6-4.6v-18.4c0-2.5,2.1-4.6,4.6-4.6h124c2.5,0,4.6,2.1,4.6,4.6v18.4
				C367.9,215.7,365.8,217.7,363.3,217.7z"/>
			<g>
				<g>
					<path class="st0" d="M245.7,210.2c0-0.1,0-0.1,0-0.2c0.5-1.6,1-3.2,1.6-4.8c0-0.1,0-0.2-0.1-0.2c-1.5-1.1-3.1-2.3-4.6-3.4
						c0,0-0.1-0.1-0.1-0.1c0.1,0,0.2,0,0.3,0c1.9,0,3.7,0,5.6-0.1c0.1,0,0.1,0,0.2-0.1c0.6-1.7,1.1-3.5,1.7-5.2c0,0,0-0.1,0-0.1
						c0,0.1,0,0.1,0.1,0.1c0.6,1.8,1.3,3.5,1.9,5.3c0,0.1,0.1,0.2,0.2,0.2c1.7,0,3.5,0,5.2,0c0.1,0,0.1,0,0.2,0c0,0-0.1,0.1-0.1,0.1
						c-1.5,1-3,2-4.5,3.1c-0.1,0.1-0.1,0.1-0.1,0.2c0.6,1.8,1.2,3.5,1.8,5.3c0,0,0,0.1,0,0.2c-0.1-0.1-0.1-0.1-0.2-0.1
						c-1.5-1-3-2.1-4.4-3.2c-0.1-0.1-0.1-0.1-0.2,0c-1.5,1-2.9,2-4.4,3.1C245.9,210.2,245.8,210.2,245.7,210.2z"/>
				</g>
				<g>
					<g>
						<path class="st0" d="M265.6,210.2c0-0.1,0-0.1,0-0.2c0.5-1.6,1-3.2,1.6-4.8c0-0.1,0-0.2-0.1-0.2c-1.5-1.1-3.1-2.3-4.6-3.4
							c0,0-0.1-0.1-0.1-0.1c0.1,0,0.2,0,0.3,0c1.9,0,3.7,0,5.6-0.1c0.1,0,0.1,0,0.2-0.1c0.6-1.7,1.1-3.5,1.7-5.2c0,0,0-0.1,0-0.1
							c0,0.1,0,0.1,0.1,0.1c0.6,1.8,1.3,3.5,1.9,5.3c0,0.1,0.1,0.2,0.2,0.2c1.7,0,3.5,0,5.2,0c0.1,0,0.1,0,0.2,0
							c0,0-0.1,0.1-0.1,0.1c-1.5,1-3,2-4.5,3.1c-0.1,0.1-0.1,0.1-0.1,0.2c0.6,1.8,1.2,3.5,1.8,5.3c0,0,0,0.1,0,0.2
							c-0.1-0.1-0.1-0.1-0.2-0.1c-1.5-1-3-2.1-4.4-3.2c-0.1-0.1-0.1-0.1-0.2,0c-1.5,1-2.9,2-4.4,3.1
							C265.7,210.2,265.7,210.2,265.6,210.2z"/>
					</g>
				</g>
				<g>
					<path class="st0" d="M285.5,210.2c0-0.1,0-0.1,0-0.2c0.5-1.6,1-3.2,1.6-4.8c0-0.1,0-0.2-0.1-0.2c-1.5-1.1-3.1-2.3-4.6-3.4
						c0,0-0.1-0.1-0.1-0.1c0.1,0,0.2,0,0.3,0c1.9,0,3.7,0,5.6-0.1c0.1,0,0.1,0,0.2-0.1c0.6-1.7,1.1-3.5,1.7-5.2c0,0,0-0.1,0-0.1
						c0,0.1,0,0.1,0.1,0.1c0.6,1.8,1.3,3.5,1.9,5.3c0,0.1,0.1,0.2,0.2,0.2c1.7,0,3.5,0,5.2,0c0.1,0,0.1,0,0.2,0c0,0-0.1,0.1-0.1,0.1
						c-1.5,1-3,2-4.5,3.1c-0.1,0.1-0.1,0.1-0.1,0.2c0.6,1.8,1.2,3.5,1.8,5.3c0,0,0,0.1,0,0.2c-0.1-0.1-0.1-0.1-0.2-0.1
						c-1.5-1-3-2.1-4.4-3.2c-0.1-0.1-0.1-0.1-0.2,0c-1.5,1-2.9,2-4.4,3.1C285.6,210.2,285.6,210.2,285.5,210.2z"/>
				</g>
				<g>
					<path class="st0" d="M305.4,210.2c0-0.1,0-0.1,0-0.2c0.5-1.6,1-3.2,1.6-4.8c0-0.1,0-0.2-0.1-0.2c-1.5-1.1-3.1-2.3-4.6-3.4
						c0,0-0.1-0.1-0.1-0.1c0.1,0,0.2,0,0.3,0c1.9,0,3.7,0,5.6-0.1c0.1,0,0.1,0,0.2-0.1c0.6-1.7,1.1-3.5,1.7-5.2c0,0,0-0.1,0-0.1
						c0,0.1,0,0.1,0.1,0.1c0.6,1.8,1.3,3.5,1.9,5.3c0,0.1,0.1,0.2,0.2,0.2c1.7,0,3.5,0,5.2,0c0.1,0,0.1,0,0.2,0c0,0-0.1,0.1-0.1,0.1
						c-1.5,1-3,2-4.5,3.1c-0.1,0.1-0.1,0.1-0.1,0.2c0.6,1.8,1.2,3.5,1.8,5.3c0,0,0,0.1,0,0.2c-0.1-0.1-0.1-0.1-0.2-0.1
						c-1.5-1-3-2.1-4.4-3.2c-0.1-0.1-0.1-0.1-0.2,0c-1.5,1-2.9,2-4.4,3.1C305.5,210.2,305.5,210.2,305.4,210.2z"/>
				</g>
				<g>
					<path class="st9" d="M325.3,210.2c0-0.1,0-0.1,0-0.2c0.5-1.6,1-3.2,1.6-4.8c0-0.1,0-0.2-0.1-0.2c-1.5-1.1-3.1-2.3-4.6-3.4
						c0,0-0.1-0.1-0.1-0.1c0.1,0,0.2,0,0.3,0c1.9,0,3.7,0,5.6-0.1c0.1,0,0.1,0,0.2-0.1c0.6-1.7,1.1-3.5,1.7-5.2c0,0,0-0.1,0-0.1
						c0,0.1,0,0.1,0.1,0.1c0.6,1.8,1.3,3.5,1.9,5.3c0,0.1,0.1,0.2,0.2,0.2c1.7,0,3.5,0,5.2,0c0.1,0,0.1,0,0.2,0c0,0-0.1,0.1-0.1,0.1
						c-1.5,1-3,2-4.5,3.1c-0.1,0.1-0.1,0.1-0.1,0.2c0.6,1.8,1.2,3.5,1.8,5.3c0,0,0,0.1,0,0.2c-0.1-0.1-0.1-0.1-0.2-0.1
						c-1.5-1-3-2.1-4.4-3.2c-0.1-0.1-0.1-0.1-0.2,0c-1.5,1-2.9,2-4.4,3.1C325.4,210.2,325.3,210.2,325.3,210.2z"/>
				</g>
			</g>
			<path class="st9" d="M358.1,211.8h-10.7c-1.4,0-2.5-1.1-2.5-2.5v-10.7c0-1.4,1.1-2.5,2.5-2.5h10.7c1.4,0,2.5,1.1,2.5,2.5v10.7
				C360.5,210.7,359.4,211.8,358.1,211.8z"/>
		</g>
	</g>
	<g>
		<ellipse class="st1" cx="123" cy="443.3" rx="51.5" ry="8.9"/>
		<g>
			<g>
				<path class="st10" d="M94,238.4c-0.3,3.7-0.7,7.3-1,10.3c-0.5,4.8-0.9,8.1-0.9,8.1l-3.6,12.6c-1.2,4.3-6,6.5-10.1,4.6
					c-0.1,0-0.1-0.1-0.2-0.1c-1.5-1-2.8-3.1-4.2-8.1c0,0,0,0,0,0c-0.1-0.4-5-19.1-5.5-25.9l8.7-1.4c0.3-0.8,2.8,8.8,3.2,7.8
					c0.2-0.6,0.5-1.2,0.7-1.8c0.4-1,0.8-2.1,1.3-3.2c0.6-1.5,1.2-3.1,1.9-4.7c4.7-11.8,9.6-24.4,9.6-24.4
					C95.7,213.2,95,226.5,94,238.4z"/>
				<path class="st11" d="M93.9,238.4c-0.3,3.7-0.7,7.3-1,10.3c-5.2-1.6-8.7-4.9-10.6-7.2c0.6-1.5,1.2-3.1,1.9-4.7L93.9,238.4z"/>
				<g>
					<path class="st11" d="M83.7,261.2C83.6,261.2,83.6,261.2,83.7,261.2c-0.4,0-0.6-0.2-0.6-0.5c-1-6.6-2-11.4-2.7-14.3
						c0.2-0.6,0.5-1.2,0.7-1.8c0.6,2.6,1.9,8,3.1,16C84.2,260.9,84,261.2,83.7,261.2z"/>
				</g>
				<path class="st3" d="M78.5,236.3c0,0,1.2,1.4,3.2,2.9c2.4,1.8,6.9,4.1,11.4,4.1c3.4-13.6,3.8-30.4,2.2-34.8
					C93.2,211,82.9,225,78.5,236.3z"/>
				<g>
					<path class="st7" d="M81.5,236.3l-0.1,0.1l-1.1,0.7l-0.3-0.5L69.7,237c-0.9,0-1.6-0.6-1.7-1.5l-3.2-21.3c0-0.1,0-0.2,0-0.3
						l-0.4-0.6l1.2-0.8l0,0l0,0c0.2-0.1,0.5-0.2,0.8-0.2l10.9-0.4c0.9,0,1.6,0.6,1.7,1.5l3.2,21.3C82.3,235.4,82,236,81.5,236.3z"/>
					<path class="st6" d="M79.4,237.5l-10.9,0.4c-0.9,0-1.6-0.6-1.7-1.5l-3.2-21.3c-0.2-1,0.6-1.9,1.6-2l10.9-0.4
						c0.9,0,1.6,0.6,1.7,1.5l3.2,21.3C81.2,236.5,80.4,237.4,79.4,237.5z"/>
				</g>
				<path class="st10" d="M65,224.4c-1,0.2-0.1,1.6-0.6,3.7c-0.7,2.6,4.3,13,4.3,13c4.3,1.6,9.1-2,9.1-2s0.6-8.1-0.6-11.7
					c0,0-0.8-3.2-1.1-5.1c-0.3-1.9-1.3-4-1.8-3.6c-0.6,0.4-0.6,2-0.6,3.2c0.1,1.2,0,3.4,0,3.4s-0.5-2.8-0.6-4.3
					c-0.1-1.5-0.2-4-1.1-4.4c-1.2-0.5-1.3,2.8-1.4,4c-0.1,1.2,0.6,4.9,0.6,4.9s-1.1-4.1-0.9-5.3c0.1-1.2,0.2-3.6,0.1-4.7
					c-0.1-1-1.4-0.8-1.7,0.5c-0.3,1.3-0.6,3.8-0.7,4.6c-0.1,1.1,0.4,4.6,0.4,4.6s-0.8-4-0.8-5.1c0-0.9,0.1-2.6-0.2-3.6
					s-1.6-1.1-1.8,1.6c-0.2,2.7-0.3,3-0.1,3.8c0.2,1.4,0.5,2.9,0.4,3.5c-0.1,0.3-0.4,0.3-0.4,0.3L65,224.4z"/>
			</g>
			<g>
				<polygon class="st10" points="103.8,425.5 103.8,433.4 111.1,433.3 111.6,424.9 				"/>
				<g>
					<g>
						<path class="st2" d="M122.3,308.8c-0.1,0.9-0.3,5.5-0.7,11.9c-1,17.4-3,48.5-4.1,55.4c-1.2,7.1-0.6,30.6-0.3,42.9
							c0.1,2.1-0.7,4-2.1,5.4c-0.5,0.5-1.1,1-1.7,1.3c-1.1,0.6-2.3,1-3.7,1h-5.6c-4.2,0-7.6-3.5-7.4-7.7c0.3-10.4,0.7-29.3,0-43.9
							c-0.7-13.9,0.3-38.5,1.1-53.9h0c0.3-6.1,0.6-10.8,0.7-12.7L122.3,308.8z"/>
					</g>
				</g>
				<path class="st12" d="M98.6,308.5l23.7,0.3c-0.1,0.9-0.3,5.5-0.7,11.9c-8,1-16.4,1.4-23.7,0.5C98.3,315.1,98.5,310.4,98.6,308.5
					z"/>
				<g>
					<path class="st12" d="M115.1,397.1c0.2,7.8,0.4,16,0.3,22.5c0,1.8-0.1,3.4-0.2,4.8c-0.5,0.5-1.1,1-1.7,1.3
						c0.1-1.6,0.2-3.6,0.3-6.1c0.1-6.5-0.1-14.6-0.3-22.4c-0.3-9.6-0.5-18.6,0-22.4c1.1-8.4,3.7-54,4.3-66.2l1.6,0.1
						c-0.7,12.2-3.2,57.9-4.4,66.4C114.7,378.6,114.9,387.6,115.1,397.1z"/>
				</g>
				<g>
					<g>
						<g>
							<path class="st3" d="M105.7,433.2c0,0-1.5-2.1-2.8-2.1c-1.2,0.1-10.9,7.4-14.2,8c-3.3,0.6-2.7,3-2.1,4.2
								c0.6,1.2,26.1,0.1,26.1,0.1s0.9-7.6,0.1-9.9C112,431.2,108.2,433.8,105.7,433.2z"/>
							<g>
								<g>
									<path class="st0" d="M100.3,438.3c0.1,0,0.2,0,0.4,0c0.2-0.1,0.3-0.4,0.2-0.6c0-0.1-1-1.8-2.3-2.5c-1.8-0.9-3.2,0-3.2,0.1
										c-0.2,0.1-0.3,0.4-0.1,0.6c0.1,0.2,0.4,0.3,0.6,0.1c0,0,1-0.7,2.3,0c1.1,0.6,1.9,2.1,2,2.2
										C100.1,438.2,100.2,438.3,100.3,438.3z"/>
								</g>
								<g>
									<path class="st0" d="M101.7,437.1c0.1,0,0.2,0,0.4,0c0.2-0.1,0.3-0.4,0.2-0.6c0-0.1-1-1.8-2.3-2.5c-1.8-0.9-3.2,0-3.2,0.1
										c-0.2,0.1-0.3,0.4-0.1,0.6c0.1,0.2,0.4,0.3,0.6,0.1c0,0,1-0.7,2.3,0c1.1,0.6,1.9,2.1,2,2.2
										C101.5,437,101.6,437,101.7,437.1z"/>
								</g>
								<g>
									<path class="st0" d="M98.4,439.3c0.1,0,0.2,0,0.4,0c0.2-0.1,0.3-0.4,0.2-0.6c0-0.1-1-1.8-2.3-2.5c-1.8-0.9-3.2,0-3.2,0.1
										c-0.2,0.1-0.3,0.4-0.1,0.6c0.1,0.2,0.4,0.3,0.6,0.1c0,0,1-0.7,2.3,0c1.1,0.6,1.9,2.1,2,2.2
										C98.2,439.2,98.3,439.3,98.4,439.3z"/>
								</g>
							</g>
						</g>
					</g>
				</g>
			</g>
			<g>
				<polygon class="st10" points="139.4,425.5 140.1,433.4 146.7,433.3 147.1,424.9 				"/>
				<g>
					<g>
						<path class="st2" d="M152.8,375.1c-0.7,14.6-0.3,33.5,0,43.9c0.1,4.2-3.2,7.7-7.4,7.7h-5.6c-1.2,0-2.4-0.3-3.4-0.8
							c-0.6-0.3-1.2-0.7-1.7-1.2c-1.5-1.4-2.4-3.4-2.3-5.6c0.4-12.3,0.9-35.7-0.3-42.9c-1.1-7.1-3.1-39-4.1-56.3
							c-0.3-5.8-0.6-9.9-0.6-10.9l23.7,0.3c0.1,1.2,0.2,3.1,0.3,5.5C152.1,328.5,153.6,359,152.8,375.1z"/>
					</g>
				</g>
				<path class="st12" d="M151.3,314.7c-4.5,1.2-13.3,3.5-23.4,5.1c-0.3-5.8-0.6-9.9-0.6-10.9l23.7,0.3
					C151.1,310.4,151.2,312.3,151.3,314.7z"/>
				<g>
					<path class="st12" d="M136,419.5c0.1,2.6,0.2,4.7,0.3,6.2c-0.6-0.3-1.2-0.7-1.7-1.2c-0.1-1.4-0.2-3.1-0.2-5
						c-0.1-6.5,0.1-14.7,0.3-22.5c0.3-9.5,0.5-18.5,0-22.2c-1.1-8.5-3.7-54.2-4.4-66.4l1.6-0.1c0.7,12.2,3.2,57.8,4.3,66.2
						c0.5,3.8,0.3,12.9,0,22.4C136.1,405,135.9,413,136,419.5z"/>
				</g>
				<g>
					<path class="st3" d="M142.7,432.2c0,0,3.3-0.9,4.2-0.9c0.9,0,7.1,6.9,9.1,7.3c3.8,0.7,3.8,6.6,1.5,6.9c-6.6,0.8-17.9-2-17.9-2
						s-1-7.5-0.6-9.9C139.5,431.3,140.8,432.9,142.7,432.2z"/>
					<g>
						<g>
							<path class="st0" d="M148.2,438.6c-0.1,0-0.2,0-0.4-0.1c-0.2-0.1-0.3-0.4-0.1-0.6c0-0.1,1.2-1.7,2.6-2.3
								c1.8-0.8,3.2,0.3,3.2,0.4c0.2,0.2,0.2,0.5,0,0.6c-0.2,0.2-0.5,0.2-0.6,0c0,0-1-0.8-2.3-0.2c-1.1,0.5-2.1,2-2.2,2
								C148.4,438.5,148.3,438.6,148.2,438.6z"/>
						</g>
						<g>
							<path class="st0" d="M146.9,437.2c-0.1,0-0.2,0-0.4-0.1c-0.2-0.1-0.3-0.4-0.1-0.6c0-0.1,1.2-1.7,2.6-2.3
								c1.9-0.8,3.2,0.3,3.2,0.4c0.2,0.2,0.2,0.5,0,0.6c-0.2,0.2-0.5,0.2-0.6,0c0,0-1-0.8-2.3-0.2c-1.1,0.5-2.1,2-2.2,2
								C147.1,437.2,147,437.2,146.9,437.2z"/>
						</g>
						<g>
							<path class="st0" d="M149.9,439.8c-0.1,0-0.2,0-0.4-0.1c-0.2-0.1-0.3-0.4-0.1-0.6c0-0.1,1.2-1.7,2.6-2.3
								c1.9-0.8,3.2,0.3,3.2,0.4c0.2,0.2,0.2,0.5,0,0.6c-0.2,0.2-0.5,0.2-0.6,0c0,0-1-0.8-2.3-0.2c-1.1,0.5-2.1,2-2.2,2
								C150.1,439.7,150,439.8,149.9,439.8z"/>
						</g>
					</g>
				</g>
			</g>
			<g>
				<g>
					<g>
						<path class="st3" d="M92.2,311.3c21.4,5.4,42.8,5.4,64.2,0c0.1-6.1,0-26.7-0.5-47.9c0-1.1,0-2.2-0.1-3.4c0-0.5,0-1.1,0-1.6
							c0-0.6,0-1.1,0-1.7c0-0.6,0-1.1,0-1.7c0-0.6,0-1.1,0-1.7c0-0.5,0-1.1,0-1.6c0-0.6,0-1.1,0-1.7c0-0.6,0-1.1-0.1-1.7
							c0-0.6,0-1.1-0.1-1.7c0-0.5,0-1.1,0-1.6c0-1.1-0.1-2.3-0.1-3.4c-0.6-17.5-1.5-31.9-2.9-33.8c-3.2-4.4-17.7-10.9-22.2-14v0.7
							c0,0-2.8,3.7-5.9,3.4c-2.9-0.2-5-3.5-5.4-4.1c-2.2,1.6-7.3,4.1-12.3,6.8c-5,2.7-9.8,5.5-11.4,7.7c-1.4,1.9-2.2,16-2.6,33.2
							v0.1c0,0.3,0,0.6,0,1v0c0,0.2,0,0.5,0,0.8c0,0.5,0,1,0,1.5c0,0.5,0,1.1,0,1.6c0,0.6,0,1.1,0,1.7c0,0.6,0,1.1,0,1.7
							c0,0.6,0,1.1,0,1.7c0,0.5,0,1.1,0,1.6c0,0.6,0,1.1,0,1.7c0,0.6,0,1.1,0,1.7c0,0.6,0,1.1,0,1.7c0,0.5,0,1.1,0,1.6
							c0,1.1,0,2.2,0,3.4C92,284.5,92.1,305.1,92.2,311.3z"/>
					</g>
				</g>
				<g>
					<path class="st4" d="M135.8,240.8l-0.8,6.7h6.4v8H134l-0.9,7.3h-8.5l0.9-7.3h-5.3l-0.9,7.3h-8.5l0.9-7.3h-6.4v-8h7.4l0.8-6.7
						h-6.4v-8h7.4l0.9-7.3h8.5l-0.9,7.3h5.3l0.9-7.3h8.5l-0.9,7.3h6.4v8H135.8z M127.3,240.8H122l-0.8,6.7h5.3L127.3,240.8z"/>
				</g>
				<g>
					<path class="st4" d="M99.1,232.8c-1.8,2.5-4.5,8.1-5.7,10.7c-0.2,0.4-0.3,0.7-0.4,0.9c-0.1,0.3-0.2,0.5-0.2,0.5
						c0,0.1-0.1,0.2-0.2,0.2c0-0.5,0-1,0-1.5c0-0.3,0-0.5,0-0.8v0c0.2-0.5,0.5-1.2,0.9-1.8c1.4-2.9,3.3-6.7,4.8-8.7
						c0.2-0.2,0.5-0.3,0.7-0.1C99.2,232.3,99.3,232.6,99.1,232.8z"/>
				</g>
				<g>
					<path class="st4" d="M140.1,213.5C140.1,213.5,140.1,213.5,140.1,213.5c-8.5-0.3-15.1-3.8-19.1-6.7c-4.3-3.2-6.7-6.2-6.7-6.4
						c-0.2-0.2-0.1-0.5,0.1-0.7c0.2-0.2,0.5-0.1,0.7,0.1c0.1,0.1,9.3,12.2,25.1,12.7c0.3,0,0.5,0.2,0.5,0.5
						C140.6,213.3,140.4,213.5,140.1,213.5z"/>
				</g>
				<g>
					<path class="st4" d="M111.4,294.6c-0.3,0-0.5-0.2-0.5-0.5c0-0.3,0.2-0.5,0.5-0.5c14-0.9,22.3-8,26.8-13.8
						c4.9-6.3,6.6-12.4,6.6-12.5c0.1-0.3,0.3-0.4,0.6-0.4c0.3,0.1,0.4,0.3,0.4,0.6c-0.1,0.3-1.7,6.4-6.7,12.8
						C134.4,286.4,125.8,293.7,111.4,294.6C111.5,294.6,111.5,294.6,111.4,294.6z"/>
				</g>
				<g>
					<path class="st4" d="M118.9,285.7c-0.2,0-0.4-0.1-0.5-0.4c-0.1-0.3,0.1-0.5,0.3-0.6c12.1-3.3,14.5-13.4,14.5-13.5
						c0.1-0.3,0.3-0.4,0.6-0.4c0.3,0.1,0.4,0.3,0.4,0.6c0,0.1-0.6,2.8-2.8,5.9c-2,2.8-5.8,6.6-12.4,8.4
						C119,285.7,119,285.7,118.9,285.7z"/>
				</g>
			</g>
			<g>
				<path class="st10" d="M172.1,310.4c-0.3,4.3-2.9,7.6-2.9,10.4c0,2.9-3.3,1-1.8-4.7c1.5-5.6-0.7-11.1-1.9-11.1
					c-1.2,0.1,0.4,6.4-0.9,8.5c-1.3,2.1-2.2-2.3-3.3-5c-1.2-2.8-0.5-8.7,0.5-12.8c1-4.1-4.1-30.3-3.4-37.7l-1.9-9.6l-1.1-5.6
					l-0.2-5.8l9.9-3.9c0.4,1.9,0.8,3.8,1.1,5.8c0.2,0.9,0.3,1.7,0.5,2.6c1.3,7,2.5,13.9,3,18.3c1.3,12.2-0.9,37.1-0.9,37.1
					S172.4,306.3,172.1,310.4z"/>
				<path class="st11" d="M166.7,241.4c-2.2,2.6-5.8,5.8-10.3,7l-1.1-5.6l-0.2-5.8l9.9-3.9c0.4,1.9,0.8,3.8,1.1,5.8
					C166.4,239.7,166.6,240.5,166.7,241.4z"/>
				<path class="st3" d="M169.5,235.9c0,0-1.2,1.4-3.3,2.9c-2.5,1.9-6.3,4-10.8,4c-0.5-16.2-1.4-29.8-2.5-33.8
					C155,211.6,165,224.3,169.5,235.9z"/>
			</g>
			<g>
				<path class="st4" d="M148.6,231.2c1.8,2.5,4.5,8.1,5.7,10.7c0.2,0.4,0.3,0.7,0.4,0.9c0.1,0.3,0.2,0.5,0.2,0.5
					c0.1,0.2,0.3,0.3,0.5,0.3h0c0-0.3,0-0.5,0-0.8c0.1,0,0.3,0,0.4,0c-0.1-0.1-0.2-0.5-0.5-1c-0.3-0.6-0.7-1.5-1.2-2.5
					c-1.4-2.9-3.3-6.7-4.8-8.7c-0.2-0.2-0.5-0.3-0.7-0.1C148.5,230.7,148.4,231,148.6,231.2z"/>
			</g>
			<g>
				<path class="st7" d="M139.7,162.8c0,0,1-6.3-0.5-8.4c-1.5-2.1-4-1.5-6.7-4c-2.7-2.5-10.8-0.1-14.3-0.8c-2-0.4-4-0.1-5.9-0.5
					c-2.7-0.6-4.2,2.2-3.5,4.8c0.4,1.7,1.3,4.3,3.7,4.9C112.4,158.9,136.1,154.6,139.7,162.8z"/>
				<path class="st7" d="M140.3,167.8c0,9.1-5.6,15.4-14.7,15.4c-9.1,0-15.5-6.8-15.5-15.9c0-9.1,5.4-16,14.5-16
					C135.5,151.3,140.3,158.7,140.3,167.8z"/>
				<g>
					<path class="st11" d="M138.2,171.8c0,0,2.5-3.4,4.4-0.6c1.9,2.8-0.8,11-5.4,9L138.2,171.8z"/>
					<g>
						<g>
							<g>
								<path class="st13" d="M138.2,177.7c0.2,0,0.3-0.1,0.4-0.3c0.7-2.5,3.4-3.6,3.4-3.6c0.2-0.1,0.3-0.3,0.2-0.5
									c-0.1-0.2-0.3-0.3-0.5-0.2c-0.1,0-3,1.2-3.9,4.1c-0.1,0.2,0.1,0.4,0.3,0.5C138.2,177.7,138.2,177.7,138.2,177.7z"/>
							</g>
						</g>
					</g>
					<g>
						<path class="st13" d="M140.9,176.4c0.1,0,0.1,0,0.2-0.1c0.2-0.1,0.2-0.4,0.1-0.5c0,0-0.5-0.7-1.5-1.2c-0.2-0.1-0.4,0-0.5,0.2
							c-0.1,0.2,0,0.4,0.2,0.5c0.8,0.3,1.1,0.9,1.1,0.9C140.6,176.3,140.8,176.4,140.9,176.4z"/>
					</g>
				</g>
				<g>
					<path class="st11" d="M112.1,171.8c0,0-2.5-3.4-4.4-0.6c-1.9,2.8,0.8,11,5.4,9L112.1,171.8z"/>
					<g>
						<g>
							<g>
								<path class="st13" d="M112.1,177.7c-0.2,0-0.3-0.1-0.4-0.3c-0.7-2.5-3.4-3.6-3.4-3.6c-0.2-0.1-0.3-0.3-0.2-0.5
									c0.1-0.2,0.3-0.3,0.5-0.2c0.1,0,3,1.2,3.9,4.1c0.1,0.2-0.1,0.4-0.3,0.5C112.1,177.7,112.1,177.7,112.1,177.7z"/>
							</g>
						</g>
					</g>
					<g>
						<g>
							<g>
								<path class="st13" d="M109.4,176.4c-0.1,0-0.1,0-0.2-0.1c-0.2-0.1-0.2-0.4-0.1-0.5c0,0,0.5-0.7,1.5-1.2
									c0.2-0.1,0.4,0,0.5,0.2c0.1,0.2,0,0.4-0.2,0.5c-0.8,0.3-1.1,0.9-1.1,0.9C109.6,176.3,109.5,176.4,109.4,176.4z"/>
							</g>
						</g>
					</g>
				</g>
				<path class="st10" d="M118.9,187.2v8.2c0,0,2.4,4.2,5.8,4.5c3.3,0.3,6.2-3.6,6.2-3.6v-8.5L118.9,187.2z"/>
				<path class="st11" d="M118.9,187.2v3.6c2.2,2.5,6.2,3.1,12,2.2v-5.3L118.9,187.2z"/>
				<path class="st10" d="M139.6,171.6c0,0.5-0.1,1-0.1,1.4c-0.1,1.2-0.3,2.5-0.5,3.7c0,0,0,0.1,0,0.1c-1.1,6.1-3.6,12-8.9,13.9
					c-12.1,4.3-16.4-6.1-18.1-12.1c-0.2-0.7-0.4-1.4-0.5-2.2c0,0,0-0.1,0-0.1c-0.2-0.9-0.3-1.8-0.4-2.8c-0.1-0.7-0.2-1.5-0.2-2.2
					c-0.2-1.8-0.3-3.6-0.4-5.2c-0.2-3.7,2-7.1,5.5-8.4c5-1.9,12.5-3.4,19.6,0.6c2.6,1.5,4.3,4.3,4.3,7.3
					C139.7,167.4,139.7,169.4,139.6,171.6z"/>
				<path class="st7" d="M130.3,172.3c0,0.9,0.5,1.6,1,1.6c0.6,0,1-0.7,1-1.6c0-0.9-0.5-1.6-1-1.6
					C130.7,170.7,130.3,171.4,130.3,172.3z"/>
				<path class="st7" d="M117.9,172.3c0,0.9,0.5,1.6,1,1.6c0.6,0,1-0.7,1-1.6c0-0.9-0.5-1.6-1-1.6
					C118.3,170.7,117.9,171.4,117.9,172.3z"/>
				<path class="st7" d="M115.8,167c0,0,3.2-1.3,5.6-0.2l-0.2,1.4c0,0-3.6-0.3-5.4,0.4C115.7,168.1,115.6,167.6,115.8,167z"/>
				<path class="st7" d="M134.7,167c0,0-3.2-1.3-5.6-0.2l0.2,1.4c0,0,3.6-0.3,5.4,0.4C134.9,168.1,134.9,167.6,134.7,167z"/>
				<g>
					<path class="st11" d="M124.7,179.1c0.7,0.1,1.3-0.1,1.4-0.1c0.2-0.1,0.3-0.3,0.3-0.5c-0.1-0.2-0.3-0.3-0.5-0.3
						c-0.4,0.1-1.2,0.2-1.6,0c-0.1-0.1-0.2-0.1-0.1-0.4c0-1.4,0.9-5.9,1-5.9c0-0.2-0.1-0.4-0.3-0.5c-0.2,0-0.4,0.1-0.5,0.3
						c0,0.2-0.9,4.6-1,6c0,0.5,0.2,0.9,0.4,1C124.2,179,124.5,179.1,124.7,179.1z"/>
				</g>
				<path class="st0" d="M130.1,181.5c-0.3,1.6-1.4,4.6-4.9,4.6c-3.6,0-4.6-2.7-4.9-4.6H130.1z"/>
				<path class="st7" d="M110.7,171.8h1.8c-0.2-1.8,0.4-3.9,1-5.3c1.2-3.2-1.4-4.7,0.7-6.3c2.1-1.6,7.3-0.9,10.8-1
					c3.6-0.1,9.4-0.1,10.8,0.3c1.4,0.3,0.6,2.7,0.1,4.5c-0.5,1.8,1.7,3.8,2.1,5.7c0.1,0.5,0.1,1.3,0,2.2h1.5
					c0.2-2.3,0.2-4.4,0.2-6.2c-0.1-3-1.7-5.8-4.3-7.3c-7.1-4-14.7-2.5-19.6-0.6c-3.4,1.3-5.6,4.7-5.5,8.4
					C110.3,167.9,110.5,169.9,110.7,171.8z"/>
				<g>
					<g>
						<path class="st0" d="M118.6,177.7c-2.6,0-4.6-2.1-4.6-4.6c0-2.6,2.1-4.6,4.6-4.6c2.6,0,4.6,2.1,4.6,4.6
							C123.2,175.6,121.1,177.7,118.6,177.7z M118.6,169.1c-2.2,0-3.9,1.8-3.9,3.9c0,2.2,1.8,3.9,3.9,3.9c2.2,0,3.9-1.8,3.9-3.9
							C122.5,170.9,120.7,169.1,118.6,169.1z"/>
					</g>
					<g>
						<path class="st0" d="M131.3,177.7c-2.6,0-4.6-2.1-4.6-4.6c0-2.6,2.1-4.6,4.6-4.6s4.6,2.1,4.6,4.6
							C135.9,175.6,133.8,177.7,131.3,177.7z M131.3,169.1c-2.2,0-3.9,1.8-3.9,3.9c0,2.2,1.8,3.9,3.9,3.9c2.2,0,3.9-1.8,3.9-3.9
							C135.2,170.9,133.4,169.1,131.3,169.1z"/>
					</g>
					<g>
						<path class="st0" d="M114.7,171.5c-0.1,0-0.2,0-0.3-0.1l0,0c0,0-2.1-2.1-4.9-1.4c-0.2,0-0.4-0.1-0.4-0.3
							c0-0.2,0.1-0.4,0.3-0.4c3.2-0.7,5.5,1.5,5.6,1.6c0.1,0.1,0.1,0.4,0,0.5C114.9,171.5,114.8,171.5,114.7,171.5z"/>
					</g>
					<g>
						<path class="st0" d="M135.2,171.5c-0.1,0-0.2-0.1-0.3-0.2c-0.1-0.2-0.1-0.4,0.1-0.5c0.1-0.1,3.4-2.2,6.2-1.8
							c0.2,0,0.3,0.2,0.3,0.4c0,0.2-0.2,0.3-0.4,0.3c-2.5-0.4-5.7,1.6-5.7,1.6C135.4,171.5,135.3,171.5,135.2,171.5z"/>
					</g>
					<g>
						<path class="st0" d="M126.9,172c0,0-0.9-1.2-2-1.2c-1.1,0-1.9,1.2-1.9,1.2l-0.6-0.4c0-0.1,1-1.5,2.5-1.5
							c1.5,0,2.5,1.4,2.6,1.5L126.9,172z"/>
					</g>
				</g>
			</g>
		</g>
	</g>
	<g>
		<ellipse class="st1" cx="353" cy="446.1" rx="69.4" ry="8.9"/>
		<g>
			<g>
				<path class="st4" d="M303.6,448.2h49c0-2.5-1-4.8-2.7-6.4c-1.6-1.7-3.9-2.7-6.4-2.7h-0.1c0,0-10.4-1.4-10.4-9.8v-50.7h-9.8v50.7
					c0,8.5-10.4,9.8-10.4,9.8h-0.1C307.6,439.1,303.6,443.2,303.6,448.2z"/>
				<polygon class="st5" points="323.2,378.6 323.2,380.6 333,383.5 333,378.6 				"/>
				<path class="st3" d="M281,378.6h94.2c-1.6-8.6-9.1-14.8-17.8-14.8l-29.3,0.1l-29.3-0.1C290,363.7,282.5,370,281,378.6z"/>
			</g>
			<g>
				<g>
					<path class="st12" d="M342.5,268.3c2.5,9.1,14.9,32.8,19.7,36.2c6.3,4.4,25.9,12.7,36.2,17c1.8,0.8-5,8.8-5,8.8
						s-26.5-6.7-37.2-13.6c-3-1.9-9.7-8.6-18-21.8c-2.5-4-8.4-12-9.1-17.7C328.3,270.6,335.7,266.1,342.5,268.3z"/>
				</g>
				<g>
					<g>
						<g>
							<path class="st10" d="M372,426.2l-0.3,9.9c0,0,2.4,1.8,7.5,0.9l2.1-10.6L372,426.2z"/>
							<g>
								<path class="st2" d="M378.1,435.7c0,0,1.7-2.4,3.1-2.3c1.4,0.1,12.3,8.5,16,9.1c3.7,0.7,3.5,5.3,2.1,5.8
									c-1.7,0.6-29,0.1-29,0.1s-1-9.7-0.1-12.4C371.1,433.4,375.3,436.3,378.1,435.7z"/>
								<g>
									<g>
										<path class="st0" d="M384.2,441.6c-0.1,0-0.3,0-0.4,0c-0.3-0.1-0.3-0.5-0.2-0.7c0-0.1,1.1-2.1,2.7-2.8
											c2-1,3.6,0.1,3.7,0.1c0.2,0.2,0.3,0.5,0.1,0.7c-0.2,0.2-0.5,0.3-0.7,0.1c0,0-1.1-0.8-2.6,0c-1.2,0.6-2.2,2.4-2.2,2.4
											C384.4,441.5,384.3,441.5,384.2,441.6z"/>
									</g>
									<g>
										<path class="st0" d="M382.6,440.1c-0.1,0-0.3,0-0.4,0c-0.2-0.1-0.3-0.5-0.2-0.7c0-0.1,1.1-2.1,2.7-2.8
											c2-1,3.6,0.1,3.7,0.1c0.2,0.2,0.3,0.5,0.1,0.7c-0.2,0.2-0.5,0.3-0.7,0.1c0,0-1.2-0.8-2.6,0c-1.2,0.6-2.2,2.4-2.2,2.4
											C382.8,440,382.7,440.1,382.6,440.1z"/>
									</g>
									<g>
										<path class="st0" d="M386.3,442.7c-0.1,0-0.3,0-0.4,0c-0.3-0.1-0.3-0.5-0.2-0.7c0-0.1,1.1-2.1,2.7-2.8
											c2-1,3.6,0.1,3.7,0.1c0.2,0.2,0.3,0.5,0.1,0.7c-0.2,0.2-0.5,0.3-0.7,0.1c0,0-1.2-0.8-2.6,0c-1.2,0.6-2.2,2.4-2.2,2.4
											C386.5,442.6,386.4,442.7,386.3,442.7z"/>
									</g>
								</g>
							</g>
						</g>
						<path class="st7" d="M346.2,341.8c0,0,38.3-6.3,49.8,0.9c8.7,5.5-13.7,86.1-13.7,86.1c-4,1.2-9.6-0.5-11.7-2.7
							c0,0-3.5-9.5-0.3-37.1c0.4-3.7,0-12,3.9-26.8l-29.2-12.9L346.2,341.8z"/>
					</g>
					<g>
						<path class="st2" d="M312.1,256.7c0,0-10.6,3.5-16.3,8.4c-5.7,5-0.9,19.9-1.1,28.3c-0.1,8.4,1.3,57.5,13.3,63.6
							c9.1,4.7,47.6-2.4,44.8-14.9c-1.9-8.3-5.4-23.7-7.9-44.4c-1.6-13.7-0.9-23.8-2.5-29.4c-1.5-5.7-19.3-12.2-19.3-12.2
							L312.1,256.7z"/>
						<g>
							<path class="st12" d="M320,266.8c-5.5,0-10.6-5.9-10.9-6.1c-0.1-0.2-0.1-0.4,0-0.6c0.2-0.1,0.4-0.1,0.6,0
								c0.1,0.1,5.4,6.2,10.7,5.9c0.2,0,0.4,0.1,0.4,0.4c0,0.2-0.1,0.4-0.4,0.4C320.3,266.8,320.1,266.8,320,266.8z"/>
						</g>
						<g>
							<path class="st12" d="M315.2,333c-0.2,0-0.4-0.1-0.4-0.3c0-0.2,0.1-0.4,0.3-0.4c14.3-1.6,20.2-26.4,20.3-26.6
								c0-0.2,0.3-0.3,0.5-0.3c0.2,0,0.3,0.3,0.3,0.5C335.9,306.8,330.1,331.3,315.2,333C315.2,333,315.2,333,315.2,333z"/>
						</g>
						<g>
							<path class="st12" d="M320.9,325.5c-0.1,0-0.3-0.1-0.3-0.2c-0.1-0.2-0.1-0.4,0.1-0.5c7.6-4.7,8.7-11.6,8.7-11.7
								c0-0.2,0.2-0.4,0.4-0.3c0.2,0,0.4,0.2,0.3,0.4c0,0.3-1.2,7.3-9.1,12.2C321,325.5,320.9,325.5,320.9,325.5z"/>
						</g>
					</g>
					<g>
						
							<ellipse transform="matrix(0.8177 -0.5757 0.5757 0.8177 -74.3782 227.1184)" class="st7" cx="321.3" cy="231" rx="15.7" ry="15.7"/>
						<path class="st7" d="M337,230.9c0,0,4.6-0.4,4.8-4.8c0.1-3.7-4.5-2.1-3.6-4.9c0.9-2.8,2.2-5.2-1.4-6.5c-3.1-1.2-3.5,1-7.2-2.9
							c-4.3-4.6-9.6,3.4-14.1,2.9c-6.6-0.8-8.1,2.8-9.2,5.6c-1.2,2.8,1,5.3,1,5.3L337,230.9z"/>
						<g>
							<path class="st11" d="M333.4,237.6c0,0,3-2.8,4.4,0.2c1.3,3-2.6,10.5-6.7,7.8L333.4,237.6z"/>
							<g>
								<path class="st13" d="M332.4,243.3c0.2,0,0.3-0.1,0.4-0.2c1.1-2.3,3.8-2.9,3.9-2.9c0.2,0,0.3-0.2,0.3-0.4
									c0-0.2-0.2-0.3-0.4-0.3c-0.1,0-3.1,0.6-4.4,3.3C332.1,242.9,332.2,243.1,332.4,243.3C332.4,243.2,332.4,243.2,332.4,243.3z"
									/>
							</g>
							<g>
								<g>
									<path class="st13" d="M335.2,242.5c0.1,0,0.1,0,0.2,0c0.2-0.1,0.3-0.3,0.2-0.5c0,0-0.3-0.8-1.2-1.4
										c-0.2-0.1-0.4-0.1-0.5,0.1c-0.1,0.2-0.1,0.4,0.1,0.5c0.7,0.5,0.9,1,0.9,1.1C335,242.4,335.1,242.4,335.2,242.5z"/>
								</g>
							</g>
						</g>
						<path class="st10" d="M313.1,249.3l-1.4,7.9c0,0,2.6,4.1,5.8,4.9c3.1,0.8,5.7-2.6,5.7-2.6l1.3-7.6L313.1,249.3z"/>
						<path class="st11" d="M313.1,249.3l-0.6,3.5c1.7,2.8,5.4,4,11.2,4.2l0.9-5.1L313.1,249.3z"/>
						<path class="st10" d="M308.3,227.5c-0.4,3.1-0.8,7-0.7,10.2c0,0.8,0,1.5,0.1,2.2c0.6,6.1,3,16.9,15.4,14.8
							c5.5-0.9,8.9-6.2,11-11.9c1.4-3.8,2.2-7.8,2.7-10.7c0.5-2.9-0.7-5.9-2.9-7.8c-6.2-5.1-13.7-4.9-18.8-4
							C311.5,221.1,308.8,223.9,308.3,227.5z"/>
						<path class="st7" d="M314.1,243.8l6.7,1.2l5.7,1c0,0-2.8-3.5-5.6-2.3C320.9,243.7,318.5,241.3,314.1,243.8z"/>
						<path class="st7" d="M327.4,237.6c-0.1,0.8,0.2,1.6,0.7,1.7c0.5,0.1,1.1-0.5,1.2-1.4c0.1-0.8-0.2-1.6-0.7-1.7
							C328.1,236.1,327.5,236.7,327.4,237.6z"/>
						<path class="st7" d="M316,235.5c-0.1,0.8,0.2,1.6,0.7,1.7c0.5,0.1,1.1-0.5,1.2-1.4c0.1-0.8-0.2-1.6-0.7-1.7
							C316.7,234.1,316.1,234.7,316,235.5z"/>
						<path class="st7" d="M332.3,233.6c0,0-3.8-2.3-7.1-1.5l0,1.5c0,0,3.5-0.2,6.6,1.7C332.1,234.6,332.5,234.3,332.3,233.6z"/>
						<path class="st7" d="M313.8,230.3c0,0,4.3-0.9,7.2,1l-0.5,1.4c0,0-3.2-1.4-6.8-0.7C313.7,231.3,313.4,231,313.8,230.3z"/>
						<g>
							<g>
								<g>
									<path class="st11" d="M320.9,242.6c-0.6-0.1-1.2-0.5-1.3-0.5c-0.2-0.1-0.2-0.3-0.1-0.5c0.1-0.2,0.3-0.2,0.5-0.1
										c0.3,0.2,1.1,0.6,1.5,0.4c0.1,0,0.2-0.1,0.2-0.3c0.4-1.3,0.8-5.8,0.8-5.8c0-0.2,0.2-0.4,0.4-0.3c0.2,0,0.4,0.2,0.3,0.4
										c0,0.2-0.4,4.6-0.8,5.9c-0.1,0.5-0.5,0.7-0.7,0.8C321.5,242.7,321.2,242.7,320.9,242.6z"/>
								</g>
							</g>
						</g>
						<path class="st0" d="M325.2,245.8c-0.6,1.5-2.1,4.2-5.5,3.5c-3.4-0.6-4-3.4-4-5.2L325.2,245.8z"/>
						<g>
							<path class="st11" d="M319.4,251.3c-1-0.2-1.7-0.8-1.7-0.8c-0.2-0.1-0.2-0.4,0-0.5c0.1-0.2,0.4-0.2,0.5,0
								c0,0,0.6,0.5,1.4,0.7c0.7,0.1,1.4-0.2,1.4-0.2c0.2-0.1,0.4,0,0.5,0.2c0.1,0.2,0,0.4-0.2,0.5
								C321.2,251.1,320.3,251.4,319.4,251.3z"/>
						</g>
						<path class="st7" d="M333.4,240.1c0.6-1.5,1.2-3.5,1.2-4.5c0-1.9-1.4-3.2-0.5-4.9c0.8-1.7-0.7-3.9-2-4.4
							c-1.3-0.6-4.6-0.4-7.5-2.5c-2.7-2-8.1-1.9-9.3-0.1c-1.4,2.1-0.1,2.6-3.3,4.6c-1.3,0.8-0.4,3.6-0.5,5.4c-0.1,0.8-0.1,1.2-0.3,2
							l-0.1,0.4l-3.3-0.6c0.1-2.7,0.4-5.6,0.7-8.1c0.5-3.6,3.2-6.5,6.7-7.1c5.1-1,12.6-1.2,18.8,4c2.3,1.9,3.4,4.8,2.9,7.8
							c-0.4,2.3-0.9,5.3-1.9,8.3L333.4,240.1z"/>
						<g>
							<path class="st10" d="M308.8,237.3c0.2-0.9,0.3-1.8,0.3-2.7c0-1.2-0.2-2.3-1.3-3.1c-0.9-0.6-1.9-0.8-2.9,0.2
								c-2.3,2.4-1.8,11.1,3,10L308.8,237.3z"/>
							<g>
								<g>
									<g>
										<path class="st11" d="M307.6,239.2c-0.2-0.1-0.3-0.2-0.2-0.4c0.3-2.6-1.8-4.5-1.8-4.5c-0.2-0.1-0.2-0.4,0-0.5
											c0.1-0.2,0.4-0.2,0.5,0c0.1,0.1,2.3,2.2,2.1,5.1c0,0.2-0.2,0.4-0.4,0.3C307.6,239.2,307.6,239.2,307.6,239.2z"/>
									</g>
								</g>
							</g>
							<g>
								<g>
									<g>
										<path class="st11" d="M305.6,237c-0.1,0-0.1-0.1-0.2-0.1c-0.1-0.2-0.1-0.4,0.1-0.5c0,0,0.7-0.5,1.8-0.6
											c0.2,0,0.4,0.2,0.4,0.4c0,0.2-0.2,0.4-0.4,0.4c-0.8,0-1.3,0.4-1.3,0.4C305.8,237.1,305.7,237.1,305.6,237z"/>
									</g>
								</g>
							</g>
						</g>
					</g>
					<g>
						<g>
							<path class="st10" d="M350.6,426.2l-0.3,9.9c0,0,2.4,1.8,7.5,0.9l2.1-10.6L350.6,426.2z"/>
							<g>
								<path class="st2" d="M356.7,435.7c0,0,1.7-2.4,3.1-2.3c1.4,0.1,12.3,8.5,16,9.1c3.7,0.7,3.5,5.3,2.1,5.8
									c-1.7,0.6-29,0.1-29,0.1s-1-9.7-0.1-12.4C349.6,433.4,353.8,436.3,356.7,435.7z"/>
								<g>
									<g>
										<path class="st0" d="M362.7,441.6c-0.1,0-0.3,0-0.4,0c-0.2-0.1-0.3-0.5-0.2-0.7c0-0.1,1.1-2.1,2.7-2.8
											c2-1,3.6,0.1,3.7,0.1c0.2,0.2,0.3,0.5,0.1,0.7c-0.2,0.2-0.5,0.3-0.7,0.1c0,0-1.1-0.8-2.6,0c-1.2,0.6-2.2,2.4-2.2,2.4
											C362.9,441.5,362.8,441.5,362.7,441.6z"/>
									</g>
									<g>
										<path class="st0" d="M361.1,440.1c-0.1,0-0.3,0-0.4,0c-0.2-0.1-0.3-0.5-0.2-0.7c0-0.1,1.1-2.1,2.7-2.8
											c2-1,3.6,0.1,3.7,0.1c0.2,0.2,0.3,0.5,0.1,0.7c-0.2,0.2-0.5,0.3-0.7,0.1c0,0-1.2-0.8-2.6,0c-1.2,0.6-2.2,2.4-2.2,2.4
											C361.4,440,361.3,440.1,361.1,440.1z"/>
									</g>
									<g>
										<path class="st0" d="M364.8,442.7c-0.1,0-0.3,0-0.4,0c-0.2-0.1-0.3-0.5-0.2-0.7c0-0.1,1.1-2.1,2.7-2.8
											c2-1,3.6,0.1,3.7,0.1c0.2,0.2,0.3,0.5,0.1,0.7c-0.2,0.2-0.5,0.3-0.7,0.1c0,0-1.2-0.8-2.6,0c-1.2,0.6-2.2,2.4-2.2,2.4
											C365,442.6,364.9,442.7,364.8,442.7z"/>
									</g>
								</g>
							</g>
						</g>
						<path class="st6" d="M299.9,342.7c0,0,66.4-3.7,77.8,0c9.8,3.1-17,86.1-17,86.1c-4,1.2-9.6-0.5-11.7-2.7c0,0-2-5,1.2-32.5
							c0.4-3.7,0.9-15.1,4.8-29.9L311,364c-9.4,0-12.4-8-11.4-17.4L299.9,342.7z"/>
					</g>
				</g>
				<g>
					<path class="st10" d="M363.9,322.4c0,0,10,1.7,14.2,5.2c4.2,3.5,9.8,6.5,8.9,8.3c-0.8,1.8-6.7-2-6.7-2s-1.4,3.2-6.2,4.7
						c-4.8,1.4-15.1-6.9-15.1-6.9L363.9,322.4z"/>
					<g>
						<g>
							<path class="st12" d="M298,263.4c5.6,8.5,26.9,37.7,31.8,41.1c6.3,4.4,23.8,13.6,34,17.8c1.8,0.8-4.1,9.5-4.1,9.5
								s-25.2-8.2-36-15.1c-3-1.9-15.7-14.6-23.8-25.9c-2.8-3.9-7.3-9.2-7.9-14.9C291.2,269.3,293.3,265.8,298,263.4z"/>
						</g>
					</g>
				</g>
				<g>
					<path class="st4" d="M349.7,342.7h50.9c1.3,0,2.3-1,2.3-2.3v-2.6c0-1.3-1-2.3-2.3-2.3h-50.9c-1.3,0-2.3,1-2.3,2.3v2.6
						C347.4,341.6,348.5,342.7,349.7,342.7z"/>
					<path class="st3" d="M412.3,342.7l11.3-42.3c0.6-2.4-1.2-4.7-3.6-4.7h-24.9c-1.7,0-3.1,1.1-3.6,2.7l-12.4,44.3H412.3z"/>
					<path class="st4" d="M391.5,298.4l-12.3,43.9h-2.8l12.3-43.9c0.5-1.6,1.9-2.7,3.6-2.7h2.8C393.4,295.7,392,296.8,391.5,298.4z"
						/>
					<path class="st4" d="M397.9,321.1c-0.6,2.8,1.1,5.1,3.9,5.1c2.8,0,5.6-2.3,6.2-5.1c0.6-2.8-1.1-5.1-3.9-5.1
						C401.3,316,398.5,318.3,397.9,321.1z"/>
				</g>
			</g>
		</g>
	</g>
	<g>
		<path class="st7" d="M263.4,64L263.4,64c0.2-0.5,0.4-1,0.6-1.5c2.7-7.4,3-22.5-13.8-26.1c0,0-13.8-3.2-20,9.2c0,0-2.8,5.8-4.7,10
			c0,0-1.7,8.8-10,9.6c-8.3,0.8-12.9,4-12.1,10.1s-0.5,5.2-6.2,10.4c-5.8,5.2-9.8,14.9-4.8,21.3c5,6.4,23.5-8.8,35.4-2
			c11.9,6.8,31.9,4.8,34.2-4.8c2.3-9.6-7-16-6.5-20.9C256,74.4,261.9,68.7,263.4,64z"/>
		<g>
			<path class="st14" d="M252.9,85.7l14.6,40.1l-11.9,0l-8.8-17.2C246.8,108.6,247.8,88.4,252.9,85.7z"/>
			<path class="st10" d="M270.9,124.4c0,0,1,4.4,2.8,5.6c1.7,1.2,1.3-4.9,1.3-4.9s0.6,7.4,2.4,7.6c1.8,0.2,1.4-7,1.4-7
				s1.2,5,2.5,5.3c1.4,0.3,1.3-5,1.3-5s1.3,3.9,2.3,4.2c1,0.3,1.5-4.1,0.9-6.4c-0.6-2.3-3.4-0.9-3.4-0.9s-2.7-0.8-3.6,0.1
				c0,0-2.4-1-3.7-0.4C275.1,122.6,271.2,121.4,270.9,124.4z"/>
		</g>
		<g>
			<g>
				<path class="st2" d="M247.1,125.8c-0.1-5.7-0.4-2,0.6-8.9c0-0.3,0.1-0.5,0.1-0.8c0.1-0.2,0.2-0.3,0.3-0.5
					c1.5-2.7,2.3-4.3,2.9-6.2c1.7-6.2,0.4-10.1,0-14c0.4-1.8,1.6-7.9,2-9.7l-7.9-3.1l-1.7-0.6l-0.1,0v0l-1.7-0.7l-0.1,0
					c-3.8-1.5-7.9-2.1-12-1.9c-0.3,0-0.5,0-0.8,0.1l-3,0.3l-0.1,0l-1.9,0.2l-11.3,1l-0.8,44.9C224.1,125.8,235.1,125.8,247.1,125.8z
					"/>
			</g>
			<g>
				<g>
					<g>
						<path class="st10" d="M223.5,79.9c3.7,7.4,12.7,15.7,17.3,13.2c2.8-1.6,4-6.7,4.2-10.4l-1.7-0.6l-0.1,0v0l-1.7-0.7l-0.1-0.1
							c-3.8-1.5-7.9-2.1-12-1.9c-0.1,0-0.3,0-0.4,0.1c-0.1,0-0.3,0-0.4,0l-3,0.2l-0.1,0L223.5,79.9z"/>
					</g>
				</g>
			</g>
			<g>
				<g>
					<path class="st14" d="M247.8,116.1c0,0.3-0.1,0.5-0.1,0.8c-2,0.4-8.1,1.3-18.5-1.2c-1.4-0.3-2.8-0.7-4.3-1.2
						c-0.3-0.1-0.5-0.4-0.4-0.7c0.1-0.3,0.4-0.5,0.7-0.4c15.1,4.5,22.8,2.2,22.8,2.2c0,0,0,0,0,0C248,115.7,247.9,115.9,247.8,116.1
						z"/>
				</g>
			</g>
		</g>
		<g>
			<g>
				<g>
					<path class="st11" d="M257.7,62.9c0,0,3.3-2.1,4.2,0.9c0.8,3-4.1,9.2-7.6,6L257.7,62.9z"/>
					<path class="st0" d="M256.3,70c-0.2,0.4,0.1,0.9,0.5,1c0.4,0.2,0.9-0.1,1-0.5c0.2-0.4-0.1-0.9-0.5-1
						C256.9,69.4,256.4,69.6,256.3,70z"/>
					<g>
						<path class="st13" d="M255.9,68c0.2,0.1,0.3,0,0.4-0.1c1.4-2,4.1-2,4.2-2c0.2,0,0.4-0.2,0.4-0.4c0-0.2-0.2-0.4-0.4-0.4
							c-0.1,0-3.1,0-4.7,2.3C255.6,67.6,255.6,67.8,255.9,68C255.8,68,255.9,68,255.9,68z"/>
					</g>
					<g>
						<g>
							<path class="st13" d="M258.7,67.8c0.1,0,0.1,0,0.2,0c0.2,0,0.3-0.2,0.3-0.4c0,0-0.2-0.8-1-1.5c-0.1-0.1-0.4-0.1-0.5,0
								c-0.1,0.1-0.1,0.4,0,0.5c0.6,0.5,0.7,1.1,0.7,1.1C258.5,67.6,258.6,67.7,258.7,67.8z"/>
						</g>
					</g>
				</g>
				<path class="st10" d="M234.8,71.4l-3.1,8.7c0,0,2.9,4.6,6,6c3,1.4,5.5-1.9,5.5-1.9l2.9-8.1L234.8,71.4z"/>
				<path class="st11" d="M234.4,72.3l-1.2,3.5c1.3,3.1,4.7,5.3,10.6,6.4l1.9-5.3L234.4,72.3z"/>
				<path class="st10" d="M257.9,66.7c-0.4,0.8-0.8,1.6-1.3,2.4c-3,5.3-8.8,10.1-13.6,9.5c-10.5-1.3-11.8-10.4-11.4-16.6
					c0.1-0.7,0.6-1.3,0.8-2.1c0.3-1.9,0.3-4.1,0.9-6.2c0.4-1.4,0.8-2.8,1.2-4c1.1-3.5,4.2-5.9,7.7-6.1c5.1-0.2,12.4,0.8,17.5,6.9
					c1.9,2.2,2.5,5.4,1.5,8.2C260.3,61.1,259.3,63.9,257.9,66.7z"/>
				<g>
					<g>
						<g>
							<path class="st11" d="M244.4,66.8c-0.2-0.1-0.3-0.3-0.3-0.4c0-0.2,0.2-0.4,0.5-0.3l1.4,0.2l-0.1-5.4c0-0.2,0.2-0.4,0.4-0.4
								c0.2,0,0.4,0.2,0.4,0.4l0.1,6.4L244.4,66.8C244.5,66.9,244.5,66.9,244.4,66.8z"/>
						</g>
					</g>
				</g>
				<path class="st7" d="M257.5,55.9c3.2,3.1,0.4,7.2,0.8,9.9c0,0.2,0.1,0.2,0.2,0.2c1.4-2.9,2.5-5.7,3.3-8c1-2.9,0.3-6.1-1.7-8.4
					c-5.4-6.3-13.1-7.4-18.5-7.3c-3.7,0.1-7,2.6-8.1,6.1c-0.4,1.3-0.8,2.7-1.2,4.1c0.5,0.6,2,1.3,1.7,2.4c-0.8,2.7-1.3,4.6-0.7,4.7
					c1,0.1,2.8-3,2.5-5.5c0,0,1.4-1.1,5.4-1.2c5.2-0.1,10.5-1.2,10.5-1.2s2.1-0.4,3.2-1.3C255,50.4,255.1,53.5,257.5,55.9z"/>
				<path class="st7" d="M251.4,62.4c-0.3,0.8-0.1,1.7,0.4,1.9c0.5,0.2,1.2-0.3,1.5-1.2c0.3-0.8,0.1-1.7-0.4-1.9
					C252.3,61,251.7,61.6,251.4,62.4z"/>
				<path class="st7" d="M240.4,58.5c-0.3,0.8-0.1,1.7,0.4,1.9c0.5,0.2,1.2-0.3,1.5-1.2c0.3-0.8,0.1-1.7-0.4-1.9
					C241.4,57.1,240.7,57.7,240.4,58.5z"/>
				<path class="st7" d="M256.1,59.1c-0.7-0.4-2.2-1.2-3.9-1.8c-0.4-0.1-0.9,0.1-1,0.4l0,0c-0.1,0.3,0.2,0.6,0.5,0.7
					c1.2,0.3,4.1,1.4,5.4,2.3c0.1-0.2,0.1-0.4-0.1-0.7C256.8,59.6,256.5,59.3,256.1,59.1z"/>
				<path class="st7" d="M240.6,53.7c0.8,0.1,2.5,0.4,4.1,1c0.4,0.2,0.7,0.6,0.5,0.9l0,0c-0.1,0.3-0.5,0.3-0.8,0.2
					c-1.1-0.5-4.1-1.5-5.6-1.5c0-0.2,0.2-0.4,0.5-0.5C239.6,53.7,240.1,53.7,240.6,53.7z"/>
				<path class="st0" d="M247.8,70.6c-0.8,1.2-2.6,3.3-5.7,2.2c-3.1-1.1-3.2-3.7-3-5.3L247.8,70.6z"/>
				<g>
					<path class="st11" d="M241.4,75.1c0.9,0.3,1.9,0.1,1.9,0.1c0.2,0,0.3-0.3,0.3-0.5c0-0.2-0.3-0.3-0.5-0.3l0,0
						c0,0-0.8,0.2-1.5-0.1c-0.7-0.3-1.3-0.9-1.3-0.9c-0.1-0.2-0.4-0.2-0.6-0.1c-0.2,0.1-0.2,0.4-0.1,0.6
						C239.8,74,240.4,74.8,241.4,75.1z"/>
				</g>
			</g>
			<g>
				<path class="st10" d="M234.2,54.5c0,0-1.5-4.2-3.9-2.4c-2.4,1.8-2.6,9.4,1.8,9.1L234.2,54.5z"/>
				<path class="st0" d="M229.6,60.5c-0.2,0.4,0.1,0.9,0.5,1s0.9-0.1,1-0.5c0.2-0.4-0.1-0.9-0.5-1C230.3,59.9,229.8,60.1,229.6,60.5
					z"/>
				<g>
					<path class="st11" d="M232,58.8c-0.1-0.1-0.2-0.2-0.2-0.3c0.2-2.3-1.7-4-1.7-4c-0.1-0.1-0.2-0.3,0-0.5c0.1-0.1,0.3-0.2,0.5,0
						c0.1,0.1,2.2,1.9,2,4.6C232.5,58.7,232.3,58.8,232,58.8C232.1,58.8,232.1,58.8,232,58.8z"/>
				</g>
				<g>
					<g>
						<g>
							<path class="st11" d="M230.2,57c-0.1,0-0.1-0.1-0.2-0.1c-0.1-0.2-0.1-0.4,0.1-0.5c0,0,0.6-0.5,1.6-0.5c0.2,0,0.4,0.1,0.4,0.3
								c0,0.2-0.1,0.4-0.3,0.4c-0.7,0.1-1.2,0.4-1.2,0.4C230.4,57,230.3,57,230.2,57z"/>
						</g>
					</g>
				</g>
			</g>
			<g>
				<g>
					<path class="st7" d="M245.9,59.1c0.1-0.2,0.1-0.5,0.1-0.7c0-0.6-0.4-1.2-1.1-1.4l-5.5-2.1c-0.4-0.2-0.9-0.1-1.3,0
						c-0.2,0.1-0.4,0.2-0.6,0.4c-0.1,0.1-0.2,0.3-0.3,0.5l-0.3,0.7c-0.5,1.2-0.4,2.5,0.1,3.6c0.5,1.1,1.3,1.9,2.3,2.3l0.1,0.1
						c1.2,0.4,2.4,0.4,3.6-0.1c1.2-0.5,2.1-1.5,2.5-2.6L245.9,59.1C245.9,59.2,245.9,59.2,245.9,59.1z M245,59.5
						c-0.4,1-1.2,1.8-2.1,2.3c-1,0.4-2.1,0.5-3.1,0.1l-0.1-0.1c-0.8-0.3-1.5-1-1.9-1.9c-0.4-0.9-0.5-2-0.1-3.1l0.3-0.7
						c0.2-0.5,0.8-0.8,1.3-0.6l5.5,2.1c0.5,0.2,0.8,0.8,0.6,1.3L245,59.5z"/>
				</g>
				<g>
					<path class="st7" d="M257.6,63.2c0-0.2,0-0.5-0.1-0.7c-0.2-0.5-0.5-0.8-1-1l-5.5-2.1c-0.6-0.2-1.3-0.1-1.8,0.4
						c-0.2,0.2-0.3,0.3-0.4,0.5c0,0,0,0,0,0l-0.3,0.7c-0.5,1.2-0.4,2.5,0.1,3.6c0.5,1.1,1.3,1.9,2.3,2.3l0.1,0.1
						c1.2,0.4,2.4,0.4,3.6-0.1c1.2-0.5,2.1-1.5,2.5-2.6l0.2-0.6C257.6,63.5,257.6,63.3,257.6,63.2z M256.6,64
						c-0.4,1-1.2,1.8-2.2,2.3c-1,0.4-2.1,0.5-3.1,0.1l-0.1-0.1c-0.8-0.3-1.5-1-1.9-1.9c-0.4-0.9-0.5-2-0.1-3.1l0.3-0.7
						c0.2-0.5,0.8-0.8,1.3-0.6l5.5,2.1c0.5,0.2,0.8,0.8,0.6,1.3L256.6,64z"/>
				</g>
				<g>
					<path class="st7" d="M238.2,55c-0.4-0.5-1.7-1.6-3.7-2.2v0.7c1.7,0.6,2.8,1.5,3.2,1.9c0.1,0.1,0.2,0.2,0.2,0.2l0.5-0.4
						C238.4,55.2,238.3,55.1,238.2,55z"/>
				</g>
				<g>
					<path class="st7" d="M245.7,59.1l0-0.7c0,0,1.1,0,2.1,0.4c1.1,0.4,1.6,1,1.6,1l-0.5,0.5c0,0-0.5-0.5-1.4-0.8
						C246.6,59.2,245.7,59.1,245.7,59.1z"/>
				</g>
				<g>
					<path class="st7" d="M259.8,62.7c-1.3-0.3-2.5-0.2-2.5-0.2l0.1,0.7c0,0,1.2-0.1,2.5,0.2V62.7z"/>
				</g>
			</g>
		</g>
		<g>
			<g>
				<g>
					<g>
						<g>
							<g>
								<path class="st14" d="M195.4,125.6c0,0,0.1,0.2,0.1,0.2l25.4,0c-7.1-3.3-12.1-6.3-12.3-6.4c0,0,0.1-0.6,0.1-0.6
									c1.4-4.6,2.5-10.4,4-15c1.1-3.2,2.6-9,2.3-14.7c-0.1-2.4-1.9-7-2.9-8.2c-5.4,2.2-8,10.1-10,16.7
									C199.2,107.5,194.9,118.8,195.4,125.6C195.4,125.6,195.4,125.6,195.4,125.6z"/>
							</g>
						</g>
					</g>
				</g>
			</g>
		</g>
		<path class="st10" d="M240.5,125.8c0,0,0.2,4.4-1.2,5.6c-1.4,1.2-2.7-4.9-2.7-4.9s1.5,7.4-0.2,7.6c-1.7,0.2-3.4-7-3.4-7
			s0.2,5-1,5.3c-1.3,0.3-2.7-5-2.7-5s-0.2,3.9-1.2,4.2c-0.9,0.3-2.7-4.1-2.7-6.4c-0.1-2.3,3.2-0.9,3.2-0.9s2.5-0.8,3.7,0.1
			c0,0,2.1-1,3.6-0.4C235.8,124,239.4,122.9,240.5,125.8z"/>
	</g>
</g>
<g id="DESIGNED_BY_FREEPIK">
</g>
</svg>
