<svg xmlns="http://www.w3.org/2000/svg" viewBox="0 0 639.56 630"><defs><style>.cls-1{fill:#fff;}.cls-2{fill:#f2f2f2;}.cls-3{fill:#2f2e41;}.cls-4{fill:#ffb8b8;}.cls-5{opacity:0.1;isolation:isolate;}.cls-6{fill:#1a535c;}.cls-7{fill:#3f3d56;}.cls-8{fill:#ff6584;}</style></defs><title>masterful</title><g id="Layer_2" data-name="Layer 2"><rect class="cls-1" y="3.63" width="639.56" height="626.37"/></g><g id="Group_4" data-name="Group 4"><path id="Path_69" data-name="Path 69" class="cls-2" d="M449.11,227.91l-40.75,22.82,36.06-31.91a240.39,240.39,0,0,0-19.69-30.67L248,240.14l159.62-72.07a211.72,211.72,0,0,0-23.18-20.91L115.19,198.49C86.6,240.8,71,293.36,71,347.54H476.32C476.3,305.52,466.92,264.26,449.11,227.91Z" transform="translate(0.56)"/><path id="Path_70" data-name="Path 70" class="cls-2" d="M362.42,132.34c-83.89-48.29-184.79-22.62-244.51,62.21C181.57,178,292.41,149.46,362.42,132.34Z" transform="translate(0.56)"/><path id="Path_71" data-name="Path 71" class="cls-3" d="M325.69,137c-6.94,24.31-17.58,46.46-39.25,46.46s-38-20.84-39.26-46.46c-1.56-32.73,17.08-46.59,39.26-46.45C312.64,90.68,333.92,108.13,325.69,137Z" transform="translate(0.56)"/><rect id="Rectangle_13" data-name="Rectangle 13" class="cls-3" x="254.61" y="130.79" width="64.2" height="110.73"/><path id="Path_72" data-name="Path 72" class="cls-4" d="M276.58,194.37s2.05,34.84-2.74,40.51,42.44,10.53,41.75,4.05-9.58-48.61-6.84-57.52S276.58,194.37,276.58,194.37Z" transform="translate(0.56)"/><path id="Path_73" data-name="Path 73" class="cls-5" d="M276.58,194.37s2.05,34.84-2.74,40.51,42.44,10.53,41.75,4.05-9.58-48.61-6.84-57.52S276.58,194.37,276.58,194.37Z" transform="translate(0.56)"/><path id="Path_74" data-name="Path 74" class="cls-6" d="M231.4,283.49l-24.59,98.43-1,4H164.44c16.47-60.34,57.18-149.3,57.18-149.3l6.35-1.71Z" transform="translate(0.56)"/><path id="Path_75" data-name="Path 75" class="cls-5" d="M231.4,283.49l-24.59,98.43-1,4H164.44c16.47-60.34,57.18-149.3,57.18-149.3l6.35-1.71Z" transform="translate(0.56)"/><ellipse id="Ellipse_22" data-name="Ellipse 22" class="cls-4" cx="285.35" cy="170.07" rx="30.8" ry="36.46"/><path id="Path_76" data-name="Path 76" class="cls-7" d="M317.65,228.4s-11,12.15-23.28,9.72S276.88,218,276.88,218L264.94,228.4s-3.42,29.16,12.32,32.4,38.33,4.05,43.13,0S317.65,228.4,317.65,228.4Z" transform="translate(0.56)"/><path id="Path_77" data-name="Path 77" class="cls-6" d="M355.3,271.33l-2,7.55-27.73,107H206.25a37.73,37.73,0,0,0,.56-4c1.54-15.23.63-53.66.63-56.3,0-3.25,11.63-83.44,14.38-89.12a4.8,4.8,0,0,1,1.64-1.62c3.19-2.17,10.25-4.6,17.86-6.74h0c4.25-1.23,8.69-2.35,12.72-3.31h0c3.95-.93,7.49-1.7,10.08-2.21a37.29,37.29,0,0,1,4.23-.69c.63,0,1.09.89,1.4,2.25,1,4.44.64,13.94.64,13.94a22.66,22.66,0,0,0,3.08,3.41,38.26,38.26,0,0,0,8.59,6.07,45.88,45.88,0,0,0,8.14,3.28h0a51.29,51.29,0,0,0,8.93,1.84,23.36,23.36,0,0,0,7.37-.17h0c7.26-1.42,9.92-6.76,11.16-11,.22-.77.39-1.51.54-2.19,0,0,0,0,0,0,.45-2.08.65-3.54,1.13-3.52h0c1.24.14,17,16.11,27.2,26.59,4.86,5,8.46,8.72,8.68,8.95Z" transform="translate(0.56)"/><path id="Path_78" data-name="Path 78" class="cls-5" d="M353.33,278.88l-27.73,107H314.36a10.09,10.09,0,0,0,1.23-6c-.36-3,7.45-33.41,15-61.72C337.4,292.46,344,268.5,344,268.5l6.5,3.64S351.66,274.75,353.33,278.88Z" transform="translate(0.56)"/><path id="Path_79" data-name="Path 79" class="cls-6" d="M373.09,375.83c-1.35.4-1.2,5.15-1.28,10.06H318.69a10.51,10.51,0,0,0,1.7-6.81c-.35-2.86,4.89-32.39,10.17-60.9,4.16-22.55,8.35-44.47,9.81-52.1.35-1.84.55-2.84.55-2.84l.62.35h0l13.72,7.72h0s21.21,47.81,14.38,59.15-6.86,11.34-4.12,17S375.82,375,373.09,375.83Z" transform="translate(0.56)"/><ellipse id="Ellipse_23" data-name="Ellipse 23" class="cls-3" cx="286.99" cy="81.96" rx="15.49" ry="18.34"/><path id="Path_80" data-name="Path 80" class="cls-3" d="M267.84,72.18c0-9.42,6-17.3,14-18.24a11.53,11.53,0,0,0-1.55-.1c-8.56,0-15.5,8.21-15.5,18.34s6.94,18.33,15.5,18.33a13.43,13.43,0,0,0,1.55-.09c-7.92-.94-14-8.83-14-18.24Z" transform="translate(0.56)"/><path id="Path_81" data-name="Path 81" class="cls-3" d="M275,124.14s-.32-2.13-13,3.48S241.82,174.68,248.15,199c2.55,9.81.48,16.88-2.91,21.83-12.7,18.56-7.7,46.45,10.8,56,.52.27,1.06.54,1.6.8l7.91,5.62a49,49,0,0,1-5-35.78,121.16,121.16,0,0,0,1.57-52.71c-.58-2.94-1.24-6-2-9.07-6.33-26.2-3.25-23.18,18.89-49.38,0,0,12.65,11.23,23.72,16.84s20.56,11.23,12.66,29.95S288.48,218.67,301.13,243s14.24,15,12.66,24.33h0l-1.59,9.36,9.49-11.23-6.32,15s20.56,0,26.89-18.72l3.16,3.75s12.65-26.21-11.07-50.54c0,0-7.91-5.62,3.16-24.34s2.57-59-11.67-66.45S275,124.14,275,124.14Z" transform="translate(0.56)"/><path id="Path_82" data-name="Path 82" class="cls-7" d="M284.79,242l-26.35,54h6.16v7.29L294.55,242Z" transform="translate(0.56)"/><rect id="Rectangle_14" data-name="Rectangle 14" class="cls-2" x="522.37" y="349.49" width="106.84" height="50.32"/><rect id="Rectangle_15" data-name="Rectangle 15" class="cls-2" x="535.81" y="413.62" width="79.96" height="8.16"/><rect id="Rectangle_16" data-name="Rectangle 16" class="cls-2" x="535.81" y="428.31" width="79.96" height="6.53"/><circle id="Ellipse_24" data-name="Ellipse 24" class="cls-6" cx="11.59" cy="9.65" r="2.76"/><circle id="Ellipse_25" data-name="Ellipse 25" class="cls-6" cx="19.17" cy="9.65" r="2.76"/><circle id="Ellipse_26" data-name="Ellipse 26" class="cls-6" cx="26.75" cy="9.65" r="2.76"/><path id="Path_83" data-name="Path 83" class="cls-3" d="M639,435.65H0V0H639ZM1.38,434H637.62V1.63H1.38Z" transform="translate(0.56)"/><rect id="Rectangle_17" data-name="Rectangle 17" class="cls-3" x="1.25" y="16.39" width="637.62" height="1.63"/><rect id="Rectangle_18" data-name="Rectangle 18" class="cls-3" x="8.83" y="29.64" width="20.68" height="2.76"/><rect id="Rectangle_19" data-name="Rectangle 19" class="cls-3" x="8.83" y="36.53" width="20.68" height="1.38"/><rect id="Rectangle_20" data-name="Rectangle 20" class="cls-3" x="8.83" y="43.43" width="20.68" height="1.38"/><path id="Path_84" data-name="Path 84" class="cls-3" d="M440.48,44.87H184.05V30.19H440.48Zm-255-1.63H439.1V31.82H185.43Z" transform="translate(0.56)"/><path id="Path_85" data-name="Path 85" class="cls-3" d="M430.14,39.57a3,3,0,0,1-2.76-3.27,2.79,2.79,0,1,1,5.51,0A3,3,0,0,1,430.14,39.57Zm0-4.9a1.66,1.66,0,1,0,1.35,1.91,1.23,1.23,0,0,0,0-.27,1.53,1.53,0,0,0-1.37-1.64Z" transform="translate(0.56)"/><path id="Path_96" data-name="Path 96" class="cls-3" d="M431.08,38.67l1-1.17,2.71,3.11-1,1.17Z" transform="translate(0.56)"/><path id="Path_86" data-name="Path 86" class="cls-3" d="M594.88,44.87H581.1V30.19h13.78Zm-12.4-1.63h11V31.82h-11Z" transform="translate(0.56)"/><path id="Path_87" data-name="Path 87" class="cls-3" d="M612.12,44.87H598.33V30.19h13.79Zm-12.41-1.63h11V31.82h-11Z" transform="translate(0.56)"/><path id="Path_88" data-name="Path 88" class="cls-3" d="M629.35,44.87H615.56V30.19h13.79Zm-12.41-1.63h11V31.82h-11Z" transform="translate(0.56)"/><rect id="Rectangle_22" data-name="Rectangle 22" class="cls-8" x="458.96" y="396.36" width="12.41" height="12.41"/><rect id="Rectangle_23" data-name="Rectangle 23" class="cls-2" x="476.19" y="396.36" width="12.41" height="12.41"/><rect id="Rectangle_24" data-name="Rectangle 24" class="cls-2" x="493.42" y="396.36" width="12.41" height="12.41"/><path id="Path_89" data-name="Path 89" class="cls-3" d="M504.58,386.7H34.47V70.16H504.58ZM35.84,385.07H503.2V71.79H35.84Z" transform="translate(0.56)"/><path id="Path_90" data-name="Path 90" class="cls-7" d="M105.89,357.64v7.66l-10.76-7.77a.33.33,0,0,0-.38,0,.49.49,0,0,0-.19.39v16.8a.47.47,0,0,0,.19.38.33.33,0,0,0,.38,0l10.76-7.77V375a.2.2,0,0,0,.19.22h3.33a.2.2,0,0,0,.19-.22V357.64a.2.2,0,0,0-.19-.22h-3.33A.2.2,0,0,0,105.89,357.64Z" transform="translate(0.56)"/><path id="Path_91" data-name="Path 91" class="cls-7" d="M77.2,375.22h-3a.41.41,0,0,1-.27-.13.52.52,0,0,1-.11-.32V357.86a.54.54,0,0,1,.11-.32.36.36,0,0,1,.27-.12h3a.36.36,0,0,1,.27.12.54.54,0,0,1,.11.32v16.91a.52.52,0,0,1-.11.32A.41.41,0,0,1,77.2,375.22Zm8.27,0h-3a.41.41,0,0,1-.27-.13.52.52,0,0,1-.11-.32V357.86a.54.54,0,0,1,.11-.32.36.36,0,0,1,.27-.12h3a.36.36,0,0,1,.27.12.54.54,0,0,1,.11.32v16.91a.52.52,0,0,1-.11.32.41.41,0,0,1-.27.13Z" transform="translate(0.56)"/><path id="Path_92" data-name="Path 92" class="cls-6" d="M54.46,357.88v16.87a.47.47,0,0,0,.17.4.33.33,0,0,0,.38,0l11.3-8.43a.54.54,0,0,0,0-.75l0-.05L55,357.48a.33.33,0,0,0-.38,0,.47.47,0,0,0-.17.4Z" transform="translate(0.56)"/><rect id="Rectangle_25" data-name="Rectangle 25" class="cls-3" x="57.43" y="345.91" width="425.31" height="3.26"/><rect id="Rectangle_26" data-name="Rectangle 26" class="cls-6" x="57.43" y="345.91" width="74.1" height="3.26"/><rect id="Rectangle_27" data-name="Rectangle 27" class="cls-2" x="35.71" y="397.74" width="195.08" height="8.96"/><rect id="Rectangle_28" data-name="Rectangle 28" class="cls-2" x="35.71" y="417.73" width="42.74" height="8.96"/><rect id="Rectangle_29" data-name="Rectangle 29" class="cls-2" x="522.37" y="87.54" width="106.84" height="48.94"/><rect id="Rectangle_30" data-name="Rectangle 30" class="cls-2" x="535.81" y="150.93" width="79.96" height="8.16"/><rect id="Rectangle_31" data-name="Rectangle 31" class="cls-2" x="535.81" y="165.61" width="79.96" height="8.16"/><rect id="Rectangle_32" data-name="Rectangle 32" class="cls-2" x="535.81" y="180.3" width="79.96" height="8.16"/><rect id="Rectangle_33" data-name="Rectangle 33" class="cls-2" x="522.37" y="219.2" width="106.84" height="48.94"/><rect id="Rectangle_34" data-name="Rectangle 34" class="cls-2" x="535.81" y="282.28" width="79.96" height="8.16"/><rect id="Rectangle_35" data-name="Rectangle 35" class="cls-2" x="535.81" y="296.96" width="79.96" height="8.16"/><rect id="Rectangle_36" data-name="Rectangle 36" class="cls-2" x="535.81" y="311.65" width="79.96" height="8.16"/><path id="Path_93" data-name="Path 93" class="cls-8" d="M456.24,347.4l-1.43-1.27c-5.06-4.6-8.39-7.59-8.7-11.7a6.61,6.61,0,0,1,1.13-4.38,4.75,4.75,0,0,1,3.43-2.09,4.93,4.93,0,0,1,4.26,1.85,5.32,5.32,0,0,1,3.93-2.7,4.46,4.46,0,0,1,3.69,1.35,6.33,6.33,0,0,1,1.75,4.08c.31,4.12-2.54,7.74-6.85,13.32Z" transform="translate(0.56)"/><path id="Path_94" data-name="Path 94" class="cls-8" d="M473.07,326.43l-.78-1.9c-2.74-6.82-4.56-11.27-3.26-15.1a5.58,5.58,0,0,1,2.68-3.3,4.29,4.29,0,0,1,3.87,0,6.13,6.13,0,0,1,3.09,3.94,4.63,4.63,0,0,1,4.53-.29A5.49,5.49,0,0,1,486,313a6.86,6.86,0,0,1,0,4.58c-1.31,3.83-5.23,5.52-11.21,8.18Z" transform="translate(0.56)"/><path id="Path_95" data-name="Path 95" class="cls-8" d="M466.18,381.09l-.78-1.9c-2.74-6.82-4.57-11.27-3.26-15.1a5.56,5.56,0,0,1,2.68-3.29,4.23,4.23,0,0,1,3.87,0,6.07,6.07,0,0,1,3.08,3.93,4.65,4.65,0,0,1,4.54-.29,5.44,5.44,0,0,1,2.76,3.19,6.92,6.92,0,0,1,0,4.58c-1.31,3.83-5.24,5.52-11.21,8.18Z" transform="translate(0.56)"/></g></svg>